<svg width="25" height="25" viewBox="0 0 25 25" fill="none" xmlns="http://www.w3.org/2000/svg">
<path fill-rule="evenodd" clip-rule="evenodd" d="M20.0455 12.6901C20.4848 13.1294 20.4848 13.8418 20.0455 14.2811L13.2955 21.0311C12.8562 21.4704 12.1438 21.4704 11.7045 21.0311L4.95451 14.2811C4.51517 13.8418 4.51517 13.1294 4.95451 12.6901C5.39384 12.2508 6.10616 12.2508 6.54549 12.6901L12.5 18.6446L18.4545 12.6901C18.8938 12.2508 19.6062 12.2508 20.0455 12.6901Z" fill="white"/>
<path fill-rule="evenodd" clip-rule="evenodd" d="M12.5 4.4856C13.1213 4.4856 13.625 4.98928 13.625 5.6106L13.625 19.2981C13.625 19.9194 13.1213 20.4231 12.5 20.4231C11.8787 20.4231 11.375 19.9194 11.375 19.2981L11.375 5.6106C11.375 4.98928 11.8787 4.4856 12.5 4.4856Z" fill="white"/>
</svg>
