<svg width="1260" height="907" viewBox="0 0 1260 907" fill="none" xmlns="http://www.w3.org/2000/svg">
<g clip-path="url(#clip0_444_5606)">
<rect x="-0.0869141" y="290.699" width="1259.45" height="615.604" rx="60" fill="#00B8C2"/>
<mask id="mask0_444_5606" style="mask-type:alpha" maskUnits="userSpaceOnUse" x="803" y="290" width="457" height="617">
<path d="M803.494 290.625H1213.26C1238.72 290.625 1259.36 311.263 1259.36 336.72V860.135C1259.36 885.592 1238.72 906.229 1213.26 906.229H803.494V290.625Z" fill="#02B7C2"/>
</mask>
<g mask="url(#mask0_444_5606)">
<path d="M1340.75 918.522C1340.75 875.575 1306.26 840.759 1263.72 840.759C1221.17 840.759 1186.68 875.575 1186.68 918.522C1186.68 961.469 1221.17 996.285 1263.72 996.285C1306.26 996.285 1340.75 961.469 1340.75 918.522Z" fill="#81DBE1"/>
<path d="M1340.75 763.73C1340.75 721.184 1306.26 686.694 1263.72 686.694C1221.17 686.694 1186.68 721.184 1186.68 763.73C1186.68 806.276 1221.17 840.766 1263.72 840.766C1306.26 840.766 1340.75 806.276 1340.75 763.73Z" fill="#81DBE1"/>
<path d="M1186.68 918.522C1186.68 875.575 1151.86 840.759 1108.92 840.759C1065.97 840.759 1031.15 875.575 1031.15 918.522C1031.15 961.469 1065.97 996.285 1108.92 996.285C1151.86 996.285 1186.68 961.469 1186.68 918.522Z" fill="#81DBE1"/>
<path d="M1030.86 918.522C1030.86 875.575 996.046 840.759 953.099 840.759C910.152 840.759 875.336 875.575 875.336 918.522C875.336 961.469 910.152 996.285 953.099 996.285C996.046 996.285 1030.86 961.469 1030.86 918.522Z" fill="#81DBE1"/>
<path d="M1186.68 763.73C1186.68 721.184 1151.86 686.694 1108.92 686.694C1065.97 686.694 1031.15 721.184 1031.15 763.73C1031.15 806.276 1065.97 840.766 1108.92 840.766C1151.86 840.766 1186.68 806.276 1186.68 763.73Z" fill="#81DBE1"/>
<path d="M1186.68 608.921C1186.68 565.974 1151.86 531.158 1108.92 531.158C1065.97 531.158 1031.15 565.974 1031.15 608.921C1031.15 651.868 1065.97 686.684 1108.92 686.684C1151.86 686.684 1186.68 651.868 1186.68 608.921Z" fill="#81DBE1"/>
<path d="M1342.5 608.921C1342.5 565.974 1307.68 531.158 1264.73 531.158C1221.79 531.158 1186.97 565.974 1186.97 608.921C1186.97 651.868 1221.79 686.684 1264.73 686.684C1307.68 686.684 1342.5 651.868 1342.5 608.921Z" fill="#81DBE1"/>
<path d="M1031.15 763.73C1031.15 721.184 996.338 686.694 953.391 686.694C910.444 686.694 875.628 721.184 875.628 763.73C875.628 806.276 910.444 840.766 953.391 840.766C996.338 840.766 1031.15 806.276 1031.15 763.73Z" fill="#81DBE1"/>
<path d="M1031.15 608.921C1031.15 565.974 996.338 531.158 953.391 531.158C910.444 531.158 875.628 565.974 875.628 608.921C875.628 651.868 910.444 686.684 953.391 686.684C996.338 686.684 1031.15 651.868 1031.15 608.921Z" fill="#81DBE1"/>
<path d="M875.628 918.522C875.628 875.575 841.137 840.759 798.592 840.759C756.046 840.759 721.555 875.575 721.555 918.522C721.555 961.469 756.046 996.285 798.592 996.285C841.137 996.285 875.628 961.469 875.628 918.522Z" fill="#81DBE1"/>
<path d="M875.628 763.726C875.628 720.779 841.137 685.963 798.592 685.963C756.046 685.963 721.555 720.779 721.555 763.726C721.555 806.673 756.046 841.489 798.592 841.489C841.137 841.489 875.628 806.673 875.628 763.726Z" fill="#81DBE1"/>
<path d="M875.628 608.921C875.628 565.974 841.137 531.158 798.592 531.158C756.046 531.158 721.555 565.974 721.555 608.921C721.555 651.868 756.046 686.684 798.592 686.684C841.137 686.684 875.628 651.868 875.628 608.921Z" fill="#81DBE1"/>
<path d="M1340.75 452.859C1340.75 409.912 1306.26 375.097 1263.72 375.097C1221.17 375.097 1186.68 409.912 1186.68 452.859C1186.68 495.807 1221.17 530.622 1263.72 530.622C1306.26 530.622 1340.75 495.807 1340.75 452.859Z" fill="#81DBE1"/>
<path d="M1340.75 298.068C1340.75 255.522 1306.26 221.032 1263.72 221.032C1221.17 221.032 1186.68 255.522 1186.68 298.068C1186.68 340.614 1221.17 375.104 1263.72 375.104C1306.26 375.104 1340.75 340.614 1340.75 298.068Z" fill="#81DBE1"/>
<path d="M1186.68 452.859C1186.68 409.912 1151.86 375.097 1108.92 375.097C1065.97 375.097 1031.15 409.912 1031.15 452.859C1031.15 495.807 1065.97 530.622 1108.92 530.622C1151.86 530.622 1186.68 495.807 1186.68 452.859Z" fill="#81DBE1"/>
<path d="M1030.86 452.859C1030.86 409.912 996.046 375.097 953.099 375.097C910.152 375.097 875.336 409.912 875.336 452.859C875.336 495.807 910.152 530.622 953.099 530.622C996.046 530.622 1030.86 495.807 1030.86 452.859Z" fill="#81DBE1"/>
<path d="M1186.68 298.068C1186.68 255.522 1151.86 221.032 1108.92 221.032C1065.97 221.032 1031.15 255.522 1031.15 298.068C1031.15 340.614 1065.97 375.104 1108.92 375.104C1151.86 375.104 1186.68 340.614 1186.68 298.068Z" fill="#81DBE1"/>
<path d="M1031.15 298.068C1031.15 255.522 996.337 221.032 953.39 221.032C910.443 221.032 875.627 255.522 875.627 298.068C875.627 340.614 910.443 375.104 953.39 375.104C996.337 375.104 1031.15 340.614 1031.15 298.068Z" fill="#81DBE1"/>
<path d="M875.628 452.859C875.628 409.912 841.137 375.097 798.592 375.097C756.046 375.097 721.555 409.912 721.555 452.859C721.555 495.807 756.046 530.622 798.592 530.622C841.137 530.622 875.628 495.807 875.628 452.859Z" fill="#81DBE1"/>
<path d="M875.628 298.064C875.628 255.117 841.137 220.301 798.592 220.301C756.046 220.301 721.555 255.117 721.555 298.064C721.555 341.011 756.046 375.827 798.592 375.827C841.137 375.827 875.628 341.011 875.628 298.064Z" fill="#81DBE1"/>
</g>
</g>
<defs>
<clipPath id="clip0_444_5606">
<rect width="1259" height="906" fill="white" transform="translate(0.158691 0.30249)"/>
</clipPath>
</defs>
</svg>
