<svg width="1260" height="907" viewBox="0 0 1260 907" fill="none" xmlns="http://www.w3.org/2000/svg">
<g clip-path="url(#clip0_444_5476)">
<rect x="0.32959" y="80.3179" width="1259.45" height="826.231" rx="60" fill="#00B8C2"/>
<mask id="mask0_444_5476" style="mask-type:alpha" maskUnits="userSpaceOnUse" x="803" y="80" width="457" height="827">
<path d="M803.911 80.3179H1213.68C1239.14 80.3179 1259.77 100.955 1259.77 126.412V860.454C1259.77 885.912 1239.14 906.549 1213.68 906.549H803.911V80.3179Z" fill="#02B7C2"/>
</mask>
<g mask="url(#mask0_444_5476)">
<path d="M1341.17 708.214C1341.17 665.267 1306.68 630.452 1264.13 630.452C1221.59 630.452 1187.1 665.267 1187.1 708.214C1187.1 751.162 1221.59 785.977 1264.13 785.977C1306.68 785.977 1341.17 751.162 1341.17 708.214Z" fill="#81DBE1"/>
<path d="M1341.17 863.75C1341.17 820.803 1306.68 785.987 1264.13 785.987C1221.59 785.987 1187.1 820.803 1187.1 863.75C1187.1 906.697 1221.59 941.513 1264.13 941.513C1306.68 941.513 1341.17 906.697 1341.17 863.75Z" fill="#81DBE1"/>
<path d="M1341.17 553.423C1341.17 510.877 1306.68 476.386 1264.13 476.386C1221.59 476.386 1187.1 510.877 1187.1 553.423C1187.1 595.968 1221.59 630.459 1264.13 630.459C1306.68 630.459 1341.17 595.968 1341.17 553.423Z" fill="#81DBE1"/>
<path d="M1187.1 708.214C1187.1 665.267 1152.28 630.452 1109.33 630.452C1066.39 630.452 1031.57 665.267 1031.57 708.214C1031.57 751.162 1066.39 785.977 1109.33 785.977C1152.28 785.977 1187.1 751.162 1187.1 708.214Z" fill="#81DBE1"/>
<path d="M1187.1 863.75C1187.1 820.803 1152.28 785.987 1109.33 785.987C1066.39 785.987 1031.57 820.803 1031.57 863.75C1031.57 906.697 1066.39 941.513 1109.33 941.513C1152.28 941.513 1187.1 906.697 1187.1 863.75Z" fill="#81DBE1"/>
<path d="M1031.28 708.214C1031.28 665.267 996.463 630.452 953.516 630.452C910.568 630.452 875.753 665.267 875.753 708.214C875.753 751.162 910.568 785.977 953.516 785.977C996.463 785.977 1031.28 751.162 1031.28 708.214Z" fill="#81DBE1"/>
<path d="M1031.28 863.75C1031.28 820.803 996.463 785.987 953.516 785.987C910.568 785.987 875.753 820.803 875.753 863.75C875.753 906.697 910.568 941.513 953.516 941.513C996.463 941.513 1031.28 906.697 1031.28 863.75Z" fill="#81DBE1"/>
<path d="M1187.1 553.423C1187.1 510.877 1152.28 476.386 1109.33 476.386C1066.39 476.386 1031.57 510.877 1031.57 553.423C1031.57 595.968 1066.39 630.459 1109.33 630.459C1152.28 630.459 1187.1 595.968 1187.1 553.423Z" fill="#81DBE1"/>
<path d="M1187.1 398.614C1187.1 355.666 1152.28 320.851 1109.33 320.851C1066.39 320.851 1031.57 355.666 1031.57 398.614C1031.57 441.561 1066.39 476.376 1109.33 476.376C1152.28 476.376 1187.1 441.561 1187.1 398.614Z" fill="#81DBE1"/>
<path d="M1342.91 398.614C1342.91 355.666 1308.1 320.851 1265.15 320.851C1222.2 320.851 1187.39 355.666 1187.39 398.614C1187.39 441.561 1222.2 476.376 1265.15 476.376C1308.1 476.376 1342.91 441.561 1342.91 398.614Z" fill="#81DBE1"/>
<path d="M1031.57 553.423C1031.57 510.877 996.755 476.386 953.808 476.386C910.86 476.386 876.045 510.877 876.045 553.423C876.045 595.968 910.86 630.459 953.808 630.459C996.755 630.459 1031.57 595.968 1031.57 553.423Z" fill="#81DBE1"/>
<path d="M1031.57 398.614C1031.57 355.666 996.755 320.851 953.808 320.851C910.86 320.851 876.045 355.666 876.045 398.614C876.045 441.561 910.86 476.376 953.808 476.376C996.755 476.376 1031.57 441.561 1031.57 398.614Z" fill="#81DBE1"/>
<path d="M876.044 708.214C876.044 665.267 841.554 630.452 799.008 630.452C756.462 630.452 721.972 665.267 721.972 708.214C721.972 751.162 756.462 785.977 799.008 785.977C841.554 785.977 876.044 751.162 876.044 708.214Z" fill="#81DBE1"/>
<path d="M876.044 863.75C876.044 820.803 841.554 785.987 799.008 785.987C756.462 785.987 721.972 820.803 721.972 863.75C721.972 906.697 756.462 941.513 799.008 941.513C841.554 941.513 876.044 906.697 876.044 863.75Z" fill="#81DBE1"/>
<path d="M876.044 553.419C876.044 510.472 841.554 475.656 799.008 475.656C756.462 475.656 721.972 510.472 721.972 553.419C721.972 596.366 756.462 631.182 799.008 631.182C841.554 631.182 876.044 596.366 876.044 553.419Z" fill="#81DBE1"/>
<path d="M876.044 398.614C876.044 355.666 841.554 320.851 799.008 320.851C756.462 320.851 721.972 355.666 721.972 398.614C721.972 441.561 756.462 476.376 799.008 476.376C841.554 476.376 876.044 441.561 876.044 398.614Z" fill="#81DBE1"/>
<path d="M1341.17 242.552C1341.17 199.605 1306.68 164.789 1264.13 164.789C1221.59 164.789 1187.1 199.605 1187.1 242.552C1187.1 285.499 1221.59 320.315 1264.13 320.315C1306.68 320.315 1341.17 285.499 1341.17 242.552Z" fill="#81DBE1"/>
<path d="M1341.17 87.76C1341.17 45.2141 1306.68 10.7238 1264.13 10.7238C1221.59 10.7238 1187.1 45.2141 1187.1 87.76C1187.1 130.306 1221.59 164.796 1264.13 164.796C1306.68 164.796 1341.17 130.306 1341.17 87.76Z" fill="#81DBE1"/>
<path d="M1187.1 242.552C1187.1 199.605 1152.28 164.789 1109.33 164.789C1066.39 164.789 1031.57 199.605 1031.57 242.552C1031.57 285.499 1066.39 320.315 1109.33 320.315C1152.28 320.315 1187.1 285.499 1187.1 242.552Z" fill="#81DBE1"/>
<path d="M1031.28 242.552C1031.28 199.605 996.463 164.789 953.515 164.789C910.568 164.789 875.752 199.605 875.752 242.552C875.752 285.499 910.568 320.315 953.515 320.315C996.463 320.315 1031.28 285.499 1031.28 242.552Z" fill="#81DBE1"/>
<path d="M1187.1 87.76C1187.1 45.2141 1152.28 10.7238 1109.33 10.7238C1066.39 10.7238 1031.57 45.2141 1031.57 87.76C1031.57 130.306 1066.39 164.796 1109.33 164.796C1152.28 164.796 1187.1 130.306 1187.1 87.76Z" fill="#81DBE1"/>
<path d="M1031.57 87.76C1031.57 45.2141 996.754 10.7238 953.806 10.7238C910.859 10.7238 876.043 45.2141 876.043 87.76C876.043 130.306 910.859 164.796 953.806 164.796C996.754 164.796 1031.57 130.306 1031.57 87.76Z" fill="#81DBE1"/>
<path d="M876.044 242.552C876.044 199.605 841.554 164.789 799.008 164.789C756.462 164.789 721.972 199.605 721.972 242.552C721.972 285.499 756.462 320.315 799.008 320.315C841.554 320.315 876.044 285.499 876.044 242.552Z" fill="#81DBE1"/>
<path d="M876.044 87.7561C876.044 44.8088 841.554 9.99321 799.008 9.99321C756.462 9.99321 721.972 44.8088 721.972 87.7561C721.972 130.703 756.462 165.519 799.008 165.519C841.554 165.519 876.044 130.703 876.044 87.7561Z" fill="#81DBE1"/>
</g>
</g>
<defs>
<clipPath id="clip0_444_5476">
<rect width="1259" height="906" fill="white" transform="translate(0.5 0.30249)"/>
</clipPath>
</defs>
</svg>
