<svg width="1260" height="698" viewBox="0 0 1260 698" fill="none" xmlns="http://www.w3.org/2000/svg">
<rect x="0.365723" y="0.30249" width="1259.45" height="696.771" rx="53.9" fill="#063A4F"/>
<mask id="mask0_444_5556" style="mask-type:alpha" maskUnits="userSpaceOnUse" x="803" y="0" width="457" height="616">
<path d="M803.887 0.30249H1205.91C1235.68 0.30249 1259.81 24.4343 1259.81 54.2025V562.087C1259.81 591.855 1235.68 615.987 1205.91 615.987H803.887V0.30249Z" fill="#02B7C2"/>
</mask>
<g mask="url(#mask0_444_5556)">
<path d="M1341.22 628.281C1341.22 585.328 1306.72 550.508 1264.17 550.508C1221.62 550.508 1187.12 585.328 1187.12 628.281C1187.12 671.234 1221.62 706.054 1264.17 706.054C1306.72 706.054 1341.22 671.234 1341.22 628.281Z" fill="#017A81"/>
<path d="M1341.22 473.469C1341.22 430.917 1306.72 396.423 1264.17 396.423C1221.62 396.423 1187.12 430.917 1187.12 473.469C1187.12 516.02 1221.62 550.515 1264.17 550.515C1306.72 550.515 1341.22 516.02 1341.22 473.469Z" fill="#017A81"/>
<path d="M1187.12 628.281C1187.12 585.328 1152.3 550.508 1109.35 550.508C1066.4 550.508 1031.58 585.328 1031.58 628.281C1031.58 671.234 1066.4 706.054 1109.35 706.054C1152.3 706.054 1187.12 671.234 1187.12 628.281Z" fill="#017A81"/>
<path d="M1031.28 628.281C1031.28 585.328 996.464 550.508 953.511 550.508C910.559 550.508 875.738 585.328 875.738 628.281C875.738 671.234 910.559 706.054 953.511 706.054C996.464 706.054 1031.28 671.234 1031.28 628.281Z" fill="#017A81"/>
<path d="M1187.12 473.469C1187.12 430.917 1152.3 396.423 1109.35 396.423C1066.4 396.423 1031.58 430.917 1031.58 473.469C1031.58 516.02 1066.4 550.515 1109.35 550.515C1152.3 550.515 1187.12 516.02 1187.12 473.469Z" fill="#017A81"/>
<path d="M1187.12 318.64C1187.12 275.687 1152.3 240.867 1109.35 240.867C1066.4 240.867 1031.58 275.687 1031.58 318.64C1031.58 361.593 1066.4 396.413 1109.35 396.413C1152.3 396.413 1187.12 361.593 1187.12 318.64Z" fill="#017A81"/>
<path d="M1342.96 318.64C1342.96 275.687 1308.14 240.867 1265.19 240.867C1222.24 240.867 1187.42 275.687 1187.42 318.64C1187.42 361.593 1222.24 396.413 1265.19 396.413C1308.14 396.413 1342.96 361.593 1342.96 318.64Z" fill="#017A81"/>
<path d="M1031.58 473.469C1031.58 430.917 996.757 396.423 953.804 396.423C910.851 396.423 876.031 430.917 876.031 473.469C876.031 516.02 910.851 550.515 953.804 550.515C996.757 550.515 1031.58 516.02 1031.58 473.469Z" fill="#017A81"/>
<path d="M1031.58 318.64C1031.58 275.687 996.757 240.867 953.804 240.867C910.851 240.867 876.031 275.687 876.031 318.64C876.031 361.593 910.851 396.413 953.804 396.413C996.757 396.413 1031.58 361.593 1031.58 318.64Z" fill="#017A81"/>
<path d="M876.03 628.281C876.03 585.328 841.535 550.508 798.984 550.508C756.432 550.508 721.938 585.328 721.938 628.281C721.938 671.234 756.432 706.054 798.984 706.054C841.535 706.054 876.03 671.234 876.03 628.281Z" fill="#017A81"/>
<path d="M876.03 473.465C876.03 430.512 841.535 395.692 798.984 395.692C756.432 395.692 721.938 430.512 721.938 473.465C721.938 516.418 756.432 551.238 798.984 551.238C841.535 551.238 876.03 516.418 876.03 473.465Z" fill="#017A81"/>
<path d="M876.03 318.639C876.03 275.687 841.535 240.866 798.984 240.866C756.432 240.866 721.938 275.687 721.938 318.639C721.938 361.592 756.432 396.413 798.984 396.413C841.535 396.413 876.03 361.592 876.03 318.639Z" fill="#017A81"/>
<path d="M1341.22 162.558C1341.22 119.605 1306.72 84.7846 1264.17 84.7846C1221.62 84.7846 1187.12 119.605 1187.12 162.558C1187.12 205.511 1221.62 240.331 1264.17 240.331C1306.72 240.331 1341.22 205.511 1341.22 162.558Z" fill="#017A81"/>
<path d="M1341.22 7.74525C1341.22 -34.8062 1306.72 -69.301 1264.17 -69.301C1221.62 -69.301 1187.12 -34.8062 1187.12 7.74525C1187.12 50.2967 1221.62 84.7915 1264.17 84.7915C1306.72 84.7915 1341.22 50.2967 1341.22 7.74525Z" fill="#017A81"/>
<path d="M1187.12 162.558C1187.12 119.605 1152.3 84.7846 1109.35 84.7846C1066.4 84.7846 1031.58 119.605 1031.58 162.558C1031.58 205.511 1066.4 240.331 1109.35 240.331C1152.3 240.331 1187.12 205.511 1187.12 162.558Z" fill="#017A81"/>
<path d="M1031.28 162.558C1031.28 119.605 996.464 84.7846 953.511 84.7846C910.559 84.7846 875.738 119.605 875.738 162.558C875.738 205.511 910.559 240.331 953.511 240.331C996.464 240.331 1031.28 205.511 1031.28 162.558Z" fill="#017A81"/>
<path d="M1187.12 7.74549C1187.12 -34.806 1152.3 -69.3008 1109.35 -69.3008C1066.4 -69.3008 1031.58 -34.806 1031.58 7.74549C1031.58 50.297 1066.4 84.7917 1109.35 84.7917C1152.3 84.7917 1187.12 50.297 1187.12 7.74549Z" fill="#017A81"/>
<path d="M1031.58 7.74549C1031.58 -34.806 996.755 -69.3008 953.802 -69.3008C910.85 -69.3008 876.029 -34.806 876.029 7.74549C876.029 50.297 910.85 84.7917 953.802 84.7917C996.755 84.7917 1031.58 50.297 1031.58 7.74549Z" fill="#017A81"/>
<path d="M876.03 162.558C876.03 119.605 841.535 84.7846 798.984 84.7846C756.432 84.7846 721.938 119.605 721.938 162.558C721.938 205.511 756.432 240.331 798.984 240.331C841.535 240.331 876.03 205.511 876.03 162.558Z" fill="#017A81"/>
<path d="M876.03 7.74154C876.03 -35.2114 841.535 -70.0316 798.984 -70.0316C756.432 -70.0316 721.938 -35.2114 721.938 7.74154C721.938 50.6944 756.432 85.5146 798.984 85.5146C841.535 85.5146 876.03 50.6944 876.03 7.74154Z" fill="#017A81"/>
</g>
</svg>
