<svg width="1260" height="907" viewBox="0 0 1260 907" fill="none" xmlns="http://www.w3.org/2000/svg">
<g clip-path="url(#clip0_444_5517)">
<rect x="0.158691" y="145.588" width="1259.45" height="757.645" rx="60" fill="#F5B14D"/>
<mask id="mask0_444_5517" style="mask-type:alpha" maskUnits="userSpaceOnUse" x="803" y="145" width="457" height="617">
<path d="M803.84 145.414H1205.8C1235.57 145.414 1259.7 169.546 1259.7 199.314V707.111C1259.7 736.88 1235.57 761.012 1205.8 761.012H803.84V145.414Z" fill="#02B7C2"/>
</mask>
<g mask="url(#mask0_444_5517)">
<path d="M1341.09 773.304C1341.09 730.357 1306.6 695.542 1264.06 695.542C1221.51 695.542 1187.02 730.357 1187.02 773.304C1187.02 816.251 1221.51 851.066 1264.06 851.066C1306.6 851.066 1341.09 816.251 1341.09 773.304Z" fill="#F8C47A"/>
<path d="M1341.09 618.514C1341.09 575.968 1306.6 541.478 1264.06 541.478C1221.51 541.478 1187.02 575.968 1187.02 618.514C1187.02 661.059 1221.51 695.549 1264.06 695.549C1306.6 695.549 1341.09 661.059 1341.09 618.514Z" fill="#F8C47A"/>
<path d="M1187.02 773.304C1187.02 730.357 1152.21 695.542 1109.26 695.542C1066.31 695.542 1031.5 730.357 1031.5 773.304C1031.5 816.251 1066.31 851.066 1109.26 851.066C1152.21 851.066 1187.02 816.251 1187.02 773.304Z" fill="#F8C47A"/>
<path d="M1031.21 773.304C1031.21 730.357 996.39 695.542 953.444 695.542C910.497 695.542 875.681 730.357 875.681 773.304C875.681 816.251 910.497 851.066 953.444 851.066C996.39 851.066 1031.21 816.251 1031.21 773.304Z" fill="#F8C47A"/>
<path d="M1187.02 618.514C1187.02 575.968 1152.21 541.478 1109.26 541.478C1066.31 541.478 1031.5 575.968 1031.5 618.514C1031.5 661.059 1066.31 695.549 1109.26 695.549C1152.21 695.549 1187.02 661.059 1187.02 618.514Z" fill="#F8C47A"/>
<path d="M1187.02 463.706C1187.02 420.76 1152.21 385.944 1109.26 385.944C1066.31 385.944 1031.5 420.76 1031.5 463.706C1031.5 506.653 1066.31 541.469 1109.26 541.469C1152.21 541.469 1187.02 506.653 1187.02 463.706Z" fill="#F8C47A"/>
<path d="M1342.84 463.706C1342.84 420.76 1308.02 385.944 1265.08 385.944C1222.13 385.944 1187.31 420.76 1187.31 463.706C1187.31 506.653 1222.13 541.469 1265.08 541.469C1308.02 541.469 1342.84 506.653 1342.84 463.706Z" fill="#F8C47A"/>
<path d="M1031.5 618.514C1031.5 575.968 996.683 541.478 953.736 541.478C910.789 541.478 875.974 575.968 875.974 618.514C875.974 661.059 910.789 695.549 953.736 695.549C996.683 695.549 1031.5 661.059 1031.5 618.514Z" fill="#F8C47A"/>
<path d="M1031.5 463.706C1031.5 420.76 996.683 385.944 953.736 385.944C910.789 385.944 875.974 420.76 875.974 463.706C875.974 506.653 910.789 541.469 953.736 541.469C996.683 541.469 1031.5 506.653 1031.5 463.706Z" fill="#F8C47A"/>
<path d="M875.973 773.304C875.973 730.357 841.483 695.542 798.938 695.542C756.392 695.542 721.902 730.357 721.902 773.304C721.902 816.251 756.392 851.066 798.938 851.066C841.483 851.066 875.973 816.251 875.973 773.304Z" fill="#F8C47A"/>
<path d="M875.973 618.51C875.973 575.563 841.483 540.748 798.938 540.748C756.392 540.748 721.902 575.563 721.902 618.51C721.902 661.457 756.392 696.272 798.938 696.272C841.483 696.272 875.973 661.457 875.973 618.51Z" fill="#F8C47A"/>
<path d="M875.973 463.706C875.973 420.76 841.483 385.944 798.938 385.944C756.392 385.944 721.902 420.76 721.902 463.706C721.902 506.653 756.392 541.469 798.938 541.469C841.483 541.469 875.973 506.653 875.973 463.706Z" fill="#F8C47A"/>
<path d="M1341.09 307.646C1341.09 264.699 1306.6 229.884 1264.06 229.884C1221.51 229.884 1187.02 264.699 1187.02 307.646C1187.02 350.593 1221.51 385.408 1264.06 385.408C1306.6 385.408 1341.09 350.593 1341.09 307.646Z" fill="#F8C47A"/>
<path d="M1341.09 152.856C1341.09 110.31 1306.6 75.8202 1264.06 75.8202C1221.51 75.8202 1187.02 110.31 1187.02 152.856C1187.02 195.401 1221.51 229.891 1264.06 229.891C1306.6 229.891 1341.09 195.401 1341.09 152.856Z" fill="#F8C47A"/>
<path d="M1187.02 307.646C1187.02 264.699 1152.21 229.884 1109.26 229.884C1066.31 229.884 1031.5 264.699 1031.5 307.646C1031.5 350.593 1066.31 385.408 1109.26 385.408C1152.21 385.408 1187.02 350.593 1187.02 307.646Z" fill="#F8C47A"/>
<path d="M1031.21 307.646C1031.21 264.699 996.39 229.884 953.444 229.884C910.497 229.884 875.681 264.699 875.681 307.646C875.681 350.593 910.497 385.408 953.444 385.408C996.39 385.408 1031.21 350.593 1031.21 307.646Z" fill="#F8C47A"/>
<path d="M1187.02 152.856C1187.02 110.31 1152.21 75.8202 1109.26 75.8202C1066.31 75.8202 1031.5 110.31 1031.5 152.856C1031.5 195.401 1066.31 229.891 1109.26 229.891C1152.21 229.891 1187.02 195.401 1187.02 152.856Z" fill="#F8C47A"/>
<path d="M1031.5 152.856C1031.5 110.31 996.682 75.8202 953.735 75.8202C910.788 75.8202 875.973 110.31 875.973 152.856C875.973 195.401 910.788 229.891 953.735 229.891C996.682 229.891 1031.5 195.401 1031.5 152.856Z" fill="#F8C47A"/>
<path d="M875.973 307.646C875.973 264.699 841.483 229.884 798.938 229.884C756.392 229.884 721.902 264.699 721.902 307.646C721.902 350.593 756.392 385.408 798.938 385.408C841.483 385.408 875.973 350.593 875.973 307.646Z" fill="#F8C47A"/>
<path d="M875.973 152.852C875.973 109.905 841.483 75.0896 798.938 75.0896C756.392 75.0896 721.902 109.905 721.902 152.852C721.902 195.799 756.392 230.614 798.938 230.614C841.483 230.614 875.973 195.799 875.973 152.852Z" fill="#F8C47A"/>
</g>
</g>
<defs>
<clipPath id="clip0_444_5517">
<rect width="1259" height="906" fill="white" transform="translate(0.329102 0.30249)"/>
</clipPath>
</defs>
</svg>
