<svg width="1259" height="519" viewBox="0 0 1259 519" fill="none" xmlns="http://www.w3.org/2000/svg">
<rect width="1259" height="519" rx="53.9" fill="#CF4708"/>
<mask id="mask0_708_1313" style="mask-type:alpha" maskUnits="userSpaceOnUse" x="803" y="0" width="456" height="519">
<path d="M803 0H1205.1C1234.87 0 1259 24.1319 1259 53.9V465.1C1259 494.868 1234.87 519 1205.1 519H803V0Z" fill="#02B7C2"/>
</mask>
<g mask="url(#mask0_708_1313)">
<path d="M1340.7 473.166C1340.7 430.615 1306.21 396.12 1263.65 396.12C1221.1 396.12 1186.61 430.615 1186.61 473.166C1186.61 515.718 1221.1 550.213 1263.65 550.213C1306.21 550.213 1340.7 515.718 1340.7 473.166Z" fill="#DB7546"/>
<path d="M1186.61 473.166C1186.61 430.615 1151.79 396.12 1108.84 396.12C1065.88 396.12 1031.06 430.615 1031.06 473.166C1031.06 515.718 1065.88 550.213 1108.84 550.213C1151.79 550.213 1186.61 515.718 1186.61 473.166Z" fill="#DB7546"/>
<path d="M1186.61 318.337C1186.61 275.384 1151.79 240.564 1108.84 240.564C1065.88 240.564 1031.06 275.384 1031.06 318.337C1031.06 361.29 1065.88 396.11 1108.84 396.11C1151.79 396.11 1186.61 361.29 1186.61 318.337Z" fill="#DB7546"/>
<path d="M1342.45 318.337C1342.45 275.384 1307.63 240.564 1264.67 240.564C1221.72 240.564 1186.9 275.384 1186.9 318.337C1186.9 361.29 1221.72 396.11 1264.67 396.11C1307.63 396.11 1342.45 361.29 1342.45 318.337Z" fill="#DB7546"/>
<path d="M1031.06 473.166C1031.06 430.615 996.242 396.12 953.289 396.12C910.336 396.12 875.516 430.615 875.516 473.166C875.516 515.718 910.336 550.213 953.289 550.213C996.242 550.213 1031.06 515.718 1031.06 473.166Z" fill="#DB7546"/>
<path d="M1031.06 318.337C1031.06 275.384 996.242 240.564 953.289 240.564C910.336 240.564 875.516 275.384 875.516 318.337C875.516 361.29 910.336 396.11 953.289 396.11C996.242 396.11 1031.06 361.29 1031.06 318.337Z" fill="#DB7546"/>
<path d="M875.515 473.163C875.515 430.21 841.021 395.39 798.469 395.39C755.918 395.39 721.423 430.21 721.423 473.163C721.423 516.116 755.918 550.936 798.469 550.936C841.021 550.936 875.515 516.116 875.515 473.163Z" fill="#DB7546"/>
<path d="M875.515 318.337C875.515 275.384 841.021 240.564 798.469 240.564C755.918 240.564 721.423 275.384 721.423 318.337C721.423 361.29 755.918 396.11 798.469 396.11C841.021 396.11 875.515 361.29 875.515 318.337Z" fill="#DB7546"/>
<path d="M1340.7 162.255C1340.7 119.302 1306.21 84.4821 1263.65 84.4821C1221.1 84.4821 1186.61 119.302 1186.61 162.255C1186.61 205.208 1221.1 240.028 1263.65 240.028C1306.21 240.028 1340.7 205.208 1340.7 162.255Z" fill="#DB7546"/>
<path d="M1340.7 7.44276C1340.7 -35.1087 1306.21 -69.6035 1263.65 -69.6035C1221.1 -69.6035 1186.61 -35.1087 1186.61 7.44276C1186.61 49.9942 1221.1 84.489 1263.65 84.489C1306.21 84.489 1340.7 49.9942 1340.7 7.44276Z" fill="#DB7546"/>
<path d="M1186.61 162.255C1186.61 119.302 1151.79 84.4821 1108.84 84.4821C1065.88 84.4821 1031.06 119.302 1031.06 162.255C1031.06 205.208 1065.88 240.028 1108.84 240.028C1151.79 240.028 1186.61 205.208 1186.61 162.255Z" fill="#DB7546"/>
<path d="M1030.77 162.255C1030.77 119.302 995.95 84.4821 952.997 84.4821C910.044 84.4821 875.224 119.302 875.224 162.255C875.224 205.208 910.044 240.028 952.997 240.028C995.95 240.028 1030.77 205.208 1030.77 162.255Z" fill="#DB7546"/>
<path d="M1186.61 7.443C1186.61 -35.1085 1151.79 -69.6033 1108.84 -69.6033C1065.88 -69.6033 1031.06 -35.1085 1031.06 7.443C1031.06 49.9945 1065.88 84.4893 1108.84 84.4893C1151.79 84.4893 1186.61 49.9945 1186.61 7.443Z" fill="#DB7546"/>
<path d="M1031.06 7.443C1031.06 -35.1085 996.241 -69.6033 953.288 -69.6033C910.335 -69.6033 875.515 -35.1085 875.515 7.443C875.515 49.9945 910.335 84.4893 953.288 84.4893C996.241 84.4893 1031.06 49.9945 1031.06 7.443Z" fill="#DB7546"/>
<path d="M875.515 162.255C875.515 119.302 841.021 84.4821 798.469 84.4821C755.918 84.4821 721.423 119.302 721.423 162.255C721.423 205.208 755.918 240.028 798.469 240.028C841.021 240.028 875.515 205.208 875.515 162.255Z" fill="#DB7546"/>
<path d="M875.515 7.43905C875.515 -35.5139 841.021 -70.3341 798.469 -70.3341C755.918 -70.3341 721.423 -35.5139 721.423 7.43905C721.423 50.3919 755.918 85.2122 798.469 85.2122C841.021 85.2122 875.515 50.392 875.515 7.43905Z" fill="#DB7546"/>
</g>
</svg>
