<svg width="1440" height="581" viewBox="0 0 1440 581" fill="none" xmlns="http://www.w3.org/2000/svg">
<path d="M0 0.288513H1440V511.004C1440 548.892 1409.29 579.606 1371.4 579.606H68.6015C30.7139 579.606 0 548.892 0 511.004V0.288513Z" fill="#063A4F"/>
<g opacity="0.2">
<path d="M143.762 507.95C143.852 467.922 111.779 435.401 72.1256 435.312C32.4717 435.223 0.252943 467.6 0.162949 507.628C0.0729547 547.655 32.1458 580.177 71.7997 580.266C111.454 580.355 143.672 547.978 143.762 507.95Z" fill="#017A81"/>
<path d="M144.088 362.996C144.178 322.968 112.105 290.447 72.4515 290.358C32.7976 290.269 0.578871 322.646 0.488877 362.674C0.398882 402.701 32.4717 435.223 72.1256 435.312C111.779 435.401 143.998 403.024 144.088 362.996Z" fill="#017A81"/>
<path d="M144.414 218.042C144.504 178.014 112.431 145.493 72.7774 145.404C33.1236 145.315 0.904798 177.692 0.814804 217.72C0.72481 257.747 32.7977 290.269 72.4515 290.358C112.105 290.447 144.324 258.07 144.414 218.042Z" fill="#017A81"/>
<path d="M144.74 73.0883C144.83 33.0604 112.757 0.539058 73.1031 0.449905C33.4492 0.360752 1.23048 32.7375 1.14049 72.7655C1.05049 112.793 33.1234 145.315 72.7772 145.404C112.431 145.493 144.65 113.116 144.74 73.0883Z" fill="#017A81"/>
<path d="M288.716 507.953C288.806 467.926 256.43 435.403 216.402 435.313C176.374 435.223 143.852 467.6 143.762 507.628C143.672 547.655 176.048 580.178 216.076 580.268C256.104 580.357 288.626 547.981 288.716 507.953Z" fill="#017A81"/>
<path d="M289.04 362.322C289.13 322.668 256.753 290.449 216.725 290.359C176.697 290.269 144.176 322.342 144.086 361.996C143.997 401.65 176.374 433.869 216.402 433.959C256.43 434.049 288.951 401.976 289.04 362.322Z" fill="#017A81"/>
<path d="M289.365 218.045C289.455 178.017 257.079 145.495 217.051 145.405C177.023 145.315 144.501 177.692 144.411 217.72C144.321 257.747 176.697 290.269 216.725 290.359C256.753 290.449 289.275 258.073 289.365 218.045Z" fill="#017A81"/>
<path d="M289.014 73.0883C289.104 33.0604 257.031 0.539058 217.377 0.449905C177.723 0.360752 145.504 32.7375 145.414 72.7655C145.324 112.793 177.397 145.315 217.051 145.404C256.705 145.493 288.924 113.116 289.014 73.0883Z" fill="#017A81"/>
<path d="M433.67 507.953C433.76 467.926 401.384 435.403 361.356 435.313C321.328 435.223 288.806 467.6 288.716 507.628C288.626 547.655 321.002 580.178 361.03 580.268C401.058 580.357 433.58 547.981 433.67 507.953Z" fill="#017A81"/>
<path d="M433.995 362.322C434.084 322.668 401.707 290.449 361.679 290.359C321.651 290.269 289.13 322.342 289.041 361.996C288.952 401.65 321.328 433.869 361.356 433.959C401.384 434.049 433.906 401.976 433.995 362.322Z" fill="#017A81"/>
<path d="M434.319 218.045C434.409 178.017 402.033 145.495 362.005 145.405C321.977 145.315 289.455 177.692 289.365 217.72C289.275 257.747 321.651 290.269 361.679 290.359C401.707 290.449 434.229 258.073 434.319 218.045Z" fill="#017A81"/>
<path d="M434.645 73.0914C434.735 33.0634 402.359 0.541422 362.331 0.451428C322.303 0.361434 289.781 32.7375 289.691 72.7655C289.601 112.793 321.977 145.315 362.005 145.405C402.033 145.495 434.555 113.119 434.645 73.0914Z" fill="#017A81"/>
<path d="M577.27 507.95C577.36 467.922 545.287 435.401 505.633 435.312C465.979 435.223 433.76 467.6 433.67 507.628C433.58 547.655 465.653 580.177 505.307 580.266C544.961 580.355 577.18 547.978 577.27 507.95Z" fill="#017A81"/>
<path d="M577.594 362.319C577.683 322.665 545.61 290.447 505.956 290.358C466.302 290.269 434.084 322.342 433.995 361.996C433.906 401.65 465.979 433.868 505.633 433.957C545.287 434.046 577.505 401.973 577.594 362.319Z" fill="#017A81"/>
<path d="M577.917 217.365C578.006 177.711 545.932 145.493 506.279 145.404C466.625 145.315 434.407 177.388 434.317 217.042C434.228 256.696 466.302 288.914 505.956 289.003C545.61 289.092 577.828 257.019 577.917 217.365Z" fill="#017A81"/>
<path d="M578.241 73.0883C578.331 33.0604 546.258 0.539058 506.605 0.449905C466.951 0.360752 434.732 32.7375 434.642 72.7655C434.552 112.793 466.625 145.315 506.279 145.404C545.933 145.493 578.151 113.116 578.241 73.0883Z" fill="#017A81"/>
<path d="M720.869 507.95C720.959 467.922 688.886 435.401 649.232 435.312C609.578 435.223 577.36 467.6 577.27 507.628C577.18 547.655 609.253 580.177 648.906 580.266C688.56 580.355 720.779 547.978 720.869 507.95Z" fill="#017A81"/>
<path d="M721.193 362.319C721.283 322.665 689.209 290.447 649.555 290.358C609.901 290.269 577.683 322.342 577.594 361.996C577.505 401.65 609.578 433.868 649.232 433.957C688.886 434.046 721.104 401.973 721.193 362.319Z" fill="#017A81"/>
<path d="M721.516 217.365C721.605 177.711 689.532 145.493 649.878 145.404C610.224 145.315 578.006 177.388 577.917 217.042C577.828 256.696 609.901 288.914 649.555 289.003C689.209 289.092 721.427 257.019 721.516 217.365Z" fill="#017A81"/>
<path d="M721.841 73.0883C721.931 33.0604 689.858 0.539058 650.204 0.449905C610.55 0.360752 578.331 32.7375 578.241 72.7655C578.151 112.793 610.224 145.315 649.878 145.404C689.532 145.493 721.751 113.116 721.841 73.0883Z" fill="#017A81"/>
<path d="M864.468 507.95C864.558 467.922 832.485 435.401 792.832 435.312C753.178 435.223 720.959 467.6 720.869 507.628C720.779 547.655 752.852 580.177 792.506 580.266C832.16 580.355 864.378 547.978 864.468 507.95Z" fill="#017A81"/>
<path d="M864.793 362.319C864.882 322.665 832.808 290.447 793.155 290.358C753.501 290.269 721.283 322.342 721.193 361.996C721.104 401.65 753.178 433.868 792.832 433.957C832.486 434.046 864.704 401.973 864.793 362.319Z" fill="#017A81"/>
<path d="M865.115 217.365C865.205 177.711 833.131 145.493 793.477 145.404C753.823 145.315 721.605 177.388 721.516 217.042C721.427 256.696 753.501 288.914 793.154 289.003C832.808 289.092 865.026 257.019 865.115 217.365Z" fill="#017A81"/>
<path d="M865.44 73.0883C865.53 33.0604 833.457 0.539058 793.803 0.449905C754.149 0.360752 721.931 32.7375 721.841 72.7655C721.751 112.793 753.823 145.315 793.477 145.404C833.131 145.493 865.35 113.116 865.44 73.0883Z" fill="#017A81"/>
<path d="M1008.07 507.95C1008.16 467.922 976.085 435.401 936.431 435.312C896.777 435.223 864.558 467.6 864.468 507.628C864.378 547.655 896.451 580.177 936.105 580.266C975.759 580.355 1007.98 547.978 1008.07 507.95Z" fill="#017A81"/>
<path d="M1008.39 362.319C1008.48 322.665 976.408 290.447 936.754 290.358C897.1 290.269 864.882 322.342 864.793 361.996C864.703 401.65 896.777 433.868 936.431 433.957C976.085 434.046 1008.3 401.973 1008.39 362.319Z" fill="#017A81"/>
<path d="M1008.71 217.365C1008.8 177.711 976.73 145.493 937.077 145.404C897.423 145.315 865.205 177.388 865.115 217.042C865.026 256.696 897.1 288.914 936.754 289.003C976.408 289.092 1008.63 257.019 1008.71 217.365Z" fill="#017A81"/>
<path d="M1009.04 73.0883C1009.13 33.0604 977.056 0.539058 937.402 0.449905C897.749 0.360752 865.53 32.7375 865.44 72.7655C865.35 112.793 897.423 145.315 937.077 145.404C976.73 145.493 1008.95 113.116 1009.04 73.0883Z" fill="#017A81"/>
<path d="M1151.67 507.95C1151.76 467.922 1119.68 435.401 1080.03 435.312C1040.38 435.223 1008.16 467.6 1008.07 507.628C1007.98 547.655 1040.05 580.177 1079.7 580.266C1119.36 580.355 1151.58 547.978 1151.67 507.95Z" fill="#017A81"/>
<path d="M1151.99 362.319C1152.08 322.665 1120.01 290.447 1080.35 290.358C1040.7 290.269 1008.48 322.342 1008.39 361.996C1008.3 401.65 1040.38 433.868 1080.03 433.957C1119.68 434.046 1151.9 401.973 1151.99 362.319Z" fill="#017A81"/>
<path d="M1152.31 217.365C1152.4 177.711 1120.33 145.493 1080.68 145.404C1041.02 145.315 1008.8 177.388 1008.71 217.042C1008.63 256.696 1040.7 288.914 1080.35 289.003C1120.01 289.092 1152.23 257.019 1152.31 217.365Z" fill="#017A81"/>
<path d="M1152.64 73.0883C1152.73 33.0604 1120.66 0.539058 1081 0.449905C1041.35 0.360752 1009.13 32.7375 1009.04 72.7655C1008.95 112.793 1041.02 145.315 1080.68 145.404C1120.33 145.493 1152.55 113.116 1152.64 73.0883Z" fill="#017A81"/>
<path d="M1295.27 507.95C1295.36 467.922 1263.28 435.401 1223.63 435.312C1183.98 435.223 1151.76 467.6 1151.67 507.628C1151.58 547.655 1183.65 580.177 1223.3 580.266C1262.96 580.355 1295.18 547.978 1295.27 507.95Z" fill="#017A81"/>
<path d="M1295.59 362.319C1295.68 322.665 1263.61 290.447 1223.95 290.358C1184.3 290.269 1152.08 322.342 1151.99 361.996C1151.9 401.65 1183.98 433.868 1223.63 433.957C1263.28 434.046 1295.5 401.973 1295.59 362.319Z" fill="#017A81"/>
<path d="M1295.91 217.365C1296 177.711 1263.93 145.493 1224.28 145.404C1184.62 145.315 1152.4 177.388 1152.31 217.042C1152.23 256.696 1184.3 288.914 1223.95 289.003C1263.61 289.092 1295.82 257.019 1295.91 217.365Z" fill="#017A81"/>
<path d="M1296.24 73.0883C1296.33 33.0604 1264.26 0.539058 1224.6 0.449905C1184.95 0.360752 1152.73 32.7375 1152.64 72.7655C1152.55 112.793 1184.62 145.315 1224.28 145.404C1263.93 145.493 1296.15 113.116 1296.24 73.0883Z" fill="#017A81"/>
<path d="M1438.87 507.95C1438.96 467.922 1406.88 435.401 1367.23 435.312C1327.57 435.223 1295.36 467.6 1295.27 507.628C1295.18 547.655 1327.25 580.177 1366.9 580.266C1406.56 580.355 1438.78 547.978 1438.87 507.95Z" fill="#017A81"/>
<path d="M1439.19 362.319C1439.28 322.665 1407.21 290.447 1367.55 290.358C1327.9 290.269 1295.68 322.342 1295.59 361.996C1295.5 401.65 1327.57 433.868 1367.23 433.957C1406.88 434.046 1439.1 401.973 1439.19 362.319Z" fill="#017A81"/>
<path d="M1439.51 217.365C1439.6 177.711 1407.53 145.493 1367.87 145.404C1328.22 145.315 1296 177.388 1295.91 217.042C1295.82 256.696 1327.9 288.914 1367.55 289.003C1407.21 289.092 1439.42 257.019 1439.51 217.365Z" fill="#017A81"/>
<path d="M1439.84 73.0883C1439.93 33.0604 1407.85 0.539058 1368.2 0.449905C1328.55 0.360752 1296.33 32.7375 1296.24 72.7655C1296.15 112.793 1328.22 145.315 1367.87 145.404C1407.53 145.493 1439.75 113.116 1439.84 73.0883Z" fill="#017A81"/>
</g>
</svg>
