<svg width="1440" height="703" viewBox="0 0 1440 703" fill="none" xmlns="http://www.w3.org/2000/svg">
<path d="M0 69.2526C0 31.3649 30.714 0.650818 68.6016 0.650818H1371.4C1409.29 0.650818 1440 31.3648 1440 69.2524V702.289H0V69.2526Z" fill="#C0EDF0"/>
<mask id="mask0_444_5121" style="mask-type:alpha" maskUnits="userSpaceOnUse" x="826" y="0" width="615" height="703">
<path d="M826.339 0.969177H1371.4C1409.29 0.969177 1440 31.6832 1440 69.5708V702.289H826.339V0.969177Z" fill="#D9D9D9"/>
</mask>
<g mask="url(#mask0_444_5121)">
<path d="M1520.18 530.907C1520.18 482.783 1481.53 443.771 1433.85 443.771C1386.18 443.771 1347.53 482.783 1347.53 530.907C1347.53 579.032 1386.18 618.044 1433.85 618.044C1481.53 618.044 1520.18 579.032 1520.18 530.907Z" fill="#81DBE1"/>
<path d="M1520.18 9.81316C1520.18 -38.3111 1481.53 -77.3235 1433.85 -77.3235C1386.18 -77.3235 1347.53 -38.3111 1347.53 9.81316C1347.53 57.9374 1386.18 96.9499 1433.85 96.9499C1481.53 96.9499 1520.18 57.9374 1520.18 9.81316Z" fill="#81DBE1"/>
<path d="M1520.18 697.373C1520.18 649.249 1481.53 610.237 1433.85 610.237C1386.18 610.237 1347.53 649.249 1347.53 697.373C1347.53 745.498 1386.18 784.51 1433.85 784.51C1481.53 784.51 1520.18 745.498 1520.18 697.373Z" fill="#81DBE1"/>
<path d="M1520.18 357.457C1520.18 309.782 1481.53 271.135 1433.85 271.135C1386.18 271.135 1347.53 309.782 1347.53 357.457C1347.53 405.132 1386.18 443.779 1433.85 443.779C1481.53 443.779 1520.18 405.131 1520.18 357.457Z" fill="#81DBE1"/>
<path d="M1520.18 182.414C1520.18 134.739 1481.53 96.0916 1433.85 96.0916C1386.18 96.0916 1347.53 134.739 1347.53 182.414C1347.53 230.088 1386.18 268.736 1433.85 268.736C1481.53 268.736 1520.18 230.088 1520.18 182.414Z" fill="#81DBE1"/>
<path d="M1347.53 530.907C1347.53 482.783 1308.52 443.771 1260.39 443.771C1212.27 443.771 1173.26 482.783 1173.26 530.907C1173.26 579.032 1212.27 618.044 1260.39 618.044C1308.52 618.044 1347.53 579.032 1347.53 530.907Z" fill="#81DBE1"/>
<path d="M1347.53 9.81343C1347.53 -38.3108 1308.52 -77.3233 1260.39 -77.3233C1212.27 -77.3233 1173.26 -38.3108 1173.26 9.81344C1173.26 57.9377 1212.27 96.9501 1260.39 96.9501C1308.52 96.9501 1347.53 57.9377 1347.53 9.81343Z" fill="#81DBE1"/>
<path d="M1172.29 530.907C1172.29 482.783 1133.28 443.771 1085.15 443.771C1037.03 443.771 998.016 482.783 998.016 530.907C998.016 579.032 1037.03 618.044 1085.15 618.044C1133.28 618.044 1172.29 579.032 1172.29 530.907Z" fill="#81DBE1"/>
<path d="M1347.53 697.373C1347.53 649.249 1308.52 610.237 1260.39 610.237C1212.27 610.237 1173.26 649.249 1173.26 697.373C1173.26 745.498 1212.27 784.51 1260.39 784.51C1308.52 784.51 1347.53 745.498 1347.53 697.373Z" fill="#81DBE1"/>
<path d="M1347.53 357.457C1347.53 309.782 1308.52 271.135 1260.39 271.135C1212.27 271.135 1173.26 309.782 1173.26 357.457C1173.26 405.132 1212.27 443.779 1260.39 443.779C1308.52 443.779 1347.53 405.132 1347.53 357.457Z" fill="#81DBE1"/>
<path d="M1347.53 183.995C1347.53 135.871 1308.52 96.8582 1260.39 96.8582C1212.27 96.8582 1173.26 135.871 1173.26 183.995C1173.26 232.119 1212.27 271.132 1260.39 271.132C1308.52 271.132 1347.53 232.119 1347.53 183.995Z" fill="#81DBE1"/>
<path d="M1173.26 357.457C1173.26 309.782 1134.24 271.135 1086.12 271.135C1038 271.135 998.983 309.782 998.983 357.457C998.983 405.132 1038 443.779 1086.12 443.779C1134.24 443.779 1173.26 405.132 1173.26 357.457Z" fill="#81DBE1"/>
<path d="M1173.26 183.995C1173.26 135.871 1134.24 96.8582 1086.12 96.8582C1037.99 96.8582 998.983 135.871 998.983 183.995C998.983 232.119 1037.99 271.132 1086.12 271.132C1134.24 271.132 1173.26 232.119 1173.26 183.995Z" fill="#81DBE1"/>
<path d="M998.984 9.81319C998.984 -38.3111 960.336 -77.3235 912.661 -77.3235C864.987 -77.3235 826.339 -38.3111 826.339 9.81319C826.339 57.9375 864.987 96.9499 912.661 96.9499C960.336 96.9499 998.984 57.9375 998.984 9.81319Z" fill="#81DBE1"/>
<path d="M1171.96 9.81337C1171.96 -38.3109 1133.31 -77.3233 1085.63 -77.3233C1037.96 -77.3233 999.311 -38.3109 999.311 9.81338C999.311 57.9376 1037.96 96.9501 1085.63 96.9501C1133.31 96.9501 1171.96 57.9376 1171.96 9.81337Z" fill="#81DBE1"/>
<path d="M998.984 530.907C998.984 482.783 960.336 443.771 912.661 443.771C864.987 443.771 826.339 482.783 826.339 530.907C826.339 579.032 864.987 618.044 912.661 618.044C960.336 618.044 998.984 579.032 998.984 530.907Z" fill="#81DBE1"/>
<path d="M998.984 358.078C998.984 309.954 960.336 270.942 912.661 270.942C864.987 270.942 826.339 309.954 826.339 358.078C826.339 406.203 864.987 445.215 912.661 445.215C960.336 445.215 998.984 406.203 998.984 358.078Z" fill="#81DBE1"/>
<path d="M998.984 697.373C998.984 649.249 960.336 610.237 912.661 610.237C864.987 610.237 826.339 649.249 826.339 697.373C826.339 745.498 864.987 784.51 912.661 784.51C960.336 784.51 998.984 745.498 998.984 697.373Z" fill="#81DBE1"/>
<path d="M1171.96 697.373C1171.96 649.249 1133.31 610.237 1085.63 610.237C1037.96 610.237 999.311 649.249 999.311 697.373C999.311 745.498 1037.96 784.51 1085.63 784.51C1133.31 784.51 1171.96 745.498 1171.96 697.373Z" fill="#81DBE1"/>
<path d="M998.984 183.995C998.984 135.871 960.336 96.8582 912.661 96.8582C864.987 96.8582 826.339 135.871 826.339 183.995C826.339 232.119 864.987 271.132 912.661 271.132C960.336 271.132 998.984 232.119 998.984 183.995Z" fill="#81DBE1"/>
</g>
</svg>
