<svg width="1259" height="685" viewBox="0 0 1259 685" fill="none" xmlns="http://www.w3.org/2000/svg">
<rect width="1260" height="685" rx="53.9" fill="#CF4708"/>
<mask id="mask0_708_1313" style="mask-type:alpha" maskUnits="userSpaceOnUse" x="803" y="0" width="457" height="616">
<path d="M803.729 0H1205.75C1235.52 0 1259.65 24.1319 1259.65 53.9V561.785C1259.65 591.553 1235.52 615.685 1205.75 615.685H803.729V0Z" fill="#02B7C2"/>
</mask>
<g mask="url(#mask0_708_1313)">
<path d="M1341.06 627.979C1341.06 585.026 1306.56 550.206 1264.01 550.206C1221.46 550.206 1186.96 585.026 1186.96 627.979C1186.96 670.932 1221.46 705.752 1264.01 705.752C1306.56 705.752 1341.06 670.932 1341.06 627.979Z" fill="#DB7546"/>
<path d="M1341.06 473.166C1341.06 430.615 1306.56 396.12 1264.01 396.12C1221.46 396.12 1186.96 430.615 1186.96 473.166C1186.96 515.718 1221.46 550.213 1264.01 550.213C1306.56 550.213 1341.06 515.718 1341.06 473.166Z" fill="#DB7546"/>
<path d="M1186.96 627.979C1186.96 585.026 1152.14 550.206 1109.19 550.206C1066.24 550.206 1031.42 585.026 1031.42 627.979C1031.42 670.932 1066.24 705.752 1109.19 705.752C1152.14 705.752 1186.96 670.932 1186.96 627.979Z" fill="#DB7546"/>
<path d="M1031.13 627.979C1031.13 585.026 996.306 550.206 953.353 550.206C910.4 550.206 875.58 585.026 875.58 627.979C875.58 670.932 910.4 705.752 953.353 705.752C996.306 705.752 1031.13 670.932 1031.13 627.979Z" fill="#DB7546"/>
<path d="M1186.97 473.167C1186.97 430.615 1152.14 396.12 1109.19 396.12C1066.24 396.12 1031.42 430.615 1031.42 473.167C1031.42 515.718 1066.24 550.213 1109.19 550.213C1152.14 550.213 1186.97 515.718 1186.97 473.167Z" fill="#DB7546"/>
<path d="M1186.97 318.337C1186.97 275.384 1152.14 240.564 1109.19 240.564C1066.24 240.564 1031.42 275.384 1031.42 318.337C1031.42 361.29 1066.24 396.11 1109.19 396.11C1152.14 396.11 1186.97 361.29 1186.97 318.337Z" fill="#DB7546"/>
<path d="M1342.8 318.337C1342.8 275.384 1307.98 240.564 1265.03 240.564C1222.08 240.564 1187.26 275.384 1187.26 318.337C1187.26 361.29 1222.08 396.11 1265.03 396.11C1307.98 396.11 1342.8 361.29 1342.8 318.337Z" fill="#DB7546"/>
<path d="M1031.42 473.167C1031.42 430.615 996.598 396.12 953.645 396.12C910.692 396.12 875.872 430.615 875.872 473.167C875.872 515.718 910.692 550.213 953.645 550.213C996.598 550.213 1031.42 515.718 1031.42 473.167Z" fill="#DB7546"/>
<path d="M1031.42 318.337C1031.42 275.384 996.598 240.564 953.645 240.564C910.692 240.564 875.872 275.384 875.872 318.337C875.872 361.29 910.692 396.11 953.645 396.11C996.598 396.11 1031.42 361.29 1031.42 318.337Z" fill="#DB7546"/>
<path d="M875.872 627.979C875.872 585.026 841.377 550.206 798.826 550.206C756.274 550.206 721.779 585.026 721.779 627.979C721.779 670.932 756.274 705.752 798.826 705.752C841.377 705.752 875.872 670.932 875.872 627.979Z" fill="#DB7546"/>
<path d="M875.872 473.163C875.872 430.21 841.377 395.39 798.826 395.39C756.274 395.39 721.779 430.21 721.779 473.163C721.779 516.116 756.274 550.936 798.826 550.936C841.377 550.936 875.872 516.116 875.872 473.163Z" fill="#DB7546"/>
<path d="M875.872 318.337C875.872 275.384 841.377 240.564 798.826 240.564C756.274 240.564 721.779 275.384 721.779 318.337C721.779 361.29 756.274 396.11 798.826 396.11C841.377 396.11 875.872 361.29 875.872 318.337Z" fill="#DB7546"/>
<path d="M1341.06 162.255C1341.06 119.302 1306.56 84.4821 1264.01 84.4821C1221.46 84.4821 1186.96 119.302 1186.96 162.255C1186.96 205.208 1221.46 240.028 1264.01 240.028C1306.56 240.028 1341.06 205.208 1341.06 162.255Z" fill="#DB7546"/>
<path d="M1341.06 7.44276C1341.06 -35.1087 1306.56 -69.6035 1264.01 -69.6035C1221.46 -69.6035 1186.96 -35.1087 1186.96 7.44276C1186.96 49.9942 1221.46 84.489 1264.01 84.489C1306.56 84.489 1341.06 49.9942 1341.06 7.44276Z" fill="#DB7546"/>
<path d="M1186.97 162.255C1186.97 119.302 1152.14 84.4819 1109.19 84.4819C1066.24 84.4819 1031.42 119.302 1031.42 162.255C1031.42 205.208 1066.24 240.028 1109.19 240.028C1152.14 240.028 1186.97 205.208 1186.97 162.255Z" fill="#DB7546"/>
<path d="M1031.13 162.255C1031.13 119.302 996.306 84.4821 953.353 84.4821C910.4 84.4821 875.58 119.302 875.58 162.255C875.58 205.208 910.4 240.028 953.353 240.028C996.306 240.028 1031.13 205.208 1031.13 162.255Z" fill="#DB7546"/>
<path d="M1186.97 7.443C1186.97 -35.1085 1152.14 -69.6033 1109.19 -69.6033C1066.24 -69.6033 1031.42 -35.1085 1031.42 7.443C1031.42 49.9945 1066.24 84.4893 1109.19 84.4893C1152.14 84.4893 1186.97 49.9945 1186.97 7.443Z" fill="#DB7546"/>
<path d="M1031.42 7.443C1031.42 -35.1085 996.597 -69.6033 953.644 -69.6033C910.691 -69.6033 875.871 -35.1085 875.871 7.443C875.871 49.9945 910.691 84.4893 953.644 84.4893C996.597 84.4893 1031.42 49.9945 1031.42 7.443Z" fill="#DB7546"/>
<path d="M875.872 162.255C875.872 119.302 841.377 84.4821 798.826 84.4821C756.274 84.4821 721.779 119.302 721.779 162.255C721.779 205.208 756.274 240.028 798.826 240.028C841.377 240.028 875.872 205.208 875.872 162.255Z" fill="#DB7546"/>
<path d="M875.872 7.43905C875.872 -35.5139 841.377 -70.3341 798.826 -70.3341C756.274 -70.3341 721.779 -35.5139 721.779 7.43905C721.779 50.3919 756.274 85.2122 798.826 85.2122C841.377 85.2122 875.872 50.392 875.872 7.43905Z" fill="#DB7546"/>
</g>
</svg>
