<svg width="1259" height="746" viewBox="0 0 1259 746" fill="none" xmlns="http://www.w3.org/2000/svg">
<rect width="1260" height="746" rx="60" fill="#F5B14D"/>
<mask id="mask0_708_1313" style="mask-type:alpha" maskUnits="userSpaceOnUse" x="804" y="0" width="455" height="746">
<path d="M804 0H1205.1C1234.87 0 1259 24.1319 1259 53.9V692.1C1259 721.868 1234.87 746 1205.1 746H804V0Z" fill="#02B7C2"/>
</mask>
<g mask="url(#mask0_708_1313)">
<path d="M1340.77 627.89C1340.77 584.944 1306.28 550.128 1263.73 550.128C1221.19 550.128 1186.7 584.944 1186.7 627.89C1186.7 670.837 1221.19 705.653 1263.73 705.653C1306.28 705.653 1340.77 670.837 1340.77 627.89Z" fill="#F8C47A"/>
<path d="M1340.77 473.1C1340.77 430.555 1306.28 396.065 1263.73 396.065C1221.19 396.065 1186.7 430.555 1186.7 473.1C1186.7 515.645 1221.19 550.135 1263.73 550.135C1306.28 550.135 1340.77 515.645 1340.77 473.1Z" fill="#F8C47A"/>
<path d="M1186.7 627.89C1186.7 584.944 1151.88 550.128 1108.93 550.128C1065.99 550.128 1031.17 584.944 1031.17 627.89C1031.17 670.837 1065.99 705.653 1108.93 705.653C1151.88 705.653 1186.7 670.837 1186.7 627.89Z" fill="#F8C47A"/>
<path d="M1030.88 627.89C1030.88 584.944 996.063 550.128 953.116 550.128C910.17 550.128 875.354 584.944 875.354 627.89C875.354 670.837 910.17 705.653 953.116 705.653C996.063 705.653 1030.88 670.837 1030.88 627.89Z" fill="#F8C47A"/>
<path d="M1186.7 473.1C1186.7 430.555 1151.88 396.065 1108.93 396.065C1065.99 396.065 1031.17 430.555 1031.17 473.1C1031.17 515.645 1065.99 550.135 1108.93 550.135C1151.88 550.135 1186.7 515.645 1186.7 473.1Z" fill="#F8C47A"/>
<path d="M1186.7 318.293C1186.7 275.346 1151.88 240.53 1108.93 240.53C1065.99 240.53 1031.17 275.346 1031.17 318.293C1031.17 361.239 1065.99 396.055 1108.93 396.055C1151.88 396.055 1186.7 361.239 1186.7 318.293Z" fill="#F8C47A"/>
<path d="M1342.51 318.293C1342.51 275.346 1307.7 240.53 1264.75 240.53C1221.8 240.53 1186.99 275.346 1186.99 318.293C1186.99 361.239 1221.8 396.055 1264.75 396.055C1307.7 396.055 1342.51 361.239 1342.51 318.293Z" fill="#F8C47A"/>
<path d="M1031.17 473.1C1031.17 430.555 996.356 396.065 953.409 396.065C910.462 396.065 875.647 430.555 875.647 473.1C875.647 515.645 910.462 550.135 953.409 550.135C996.356 550.135 1031.17 515.645 1031.17 473.1Z" fill="#F8C47A"/>
<path d="M1031.17 318.293C1031.17 275.346 996.356 240.53 953.409 240.53C910.462 240.53 875.647 275.346 875.647 318.293C875.647 361.239 910.462 396.055 953.409 396.055C996.356 396.055 1031.17 361.239 1031.17 318.293Z" fill="#F8C47A"/>
<path d="M875.646 627.89C875.646 584.944 841.156 550.128 798.611 550.128C756.065 550.128 721.575 584.944 721.575 627.89C721.575 670.837 756.065 705.653 798.611 705.653C841.156 705.653 875.646 670.837 875.646 627.89Z" fill="#F8C47A"/>
<path d="M875.646 473.096C875.646 430.149 841.156 395.334 798.611 395.334C756.065 395.334 721.575 430.149 721.575 473.096C721.575 516.043 756.065 550.858 798.611 550.858C841.156 550.858 875.646 516.043 875.646 473.096Z" fill="#F8C47A"/>
<path d="M875.646 318.293C875.646 275.346 841.156 240.53 798.611 240.53C756.065 240.53 721.575 275.346 721.575 318.293C721.575 361.239 756.065 396.055 798.611 396.055C841.156 396.055 875.646 361.239 875.646 318.293Z" fill="#F8C47A"/>
<path d="M1340.77 162.232C1340.77 119.286 1306.28 84.4703 1263.73 84.4703C1221.19 84.4703 1186.7 119.286 1186.7 162.232C1186.7 205.179 1221.19 239.995 1263.73 239.995C1306.28 239.995 1340.77 205.179 1340.77 162.232Z" fill="#F8C47A"/>
<path d="M1340.77 7.44203C1340.77 -35.1034 1306.28 -69.5934 1263.73 -69.5934C1221.19 -69.5934 1186.7 -35.1034 1186.7 7.44202C1186.7 49.9875 1221.19 84.4774 1263.73 84.4774C1306.28 84.4774 1340.77 49.9875 1340.77 7.44203Z" fill="#F8C47A"/>
<path d="M1186.7 162.232C1186.7 119.286 1151.88 84.4702 1108.93 84.4702C1065.99 84.4702 1031.17 119.286 1031.17 162.232C1031.17 205.179 1065.99 239.995 1108.93 239.995C1151.88 239.995 1186.7 205.179 1186.7 162.232Z" fill="#F8C47A"/>
<path d="M1030.88 162.232C1030.88 119.286 996.063 84.4702 953.116 84.4702C910.17 84.4702 875.354 119.286 875.354 162.232C875.354 205.179 910.17 239.995 953.116 239.995C996.063 239.995 1030.88 205.179 1030.88 162.232Z" fill="#F8C47A"/>
<path d="M1186.7 7.44203C1186.7 -35.1034 1151.88 -69.5934 1108.93 -69.5934C1065.99 -69.5934 1031.17 -35.1034 1031.17 7.44202C1031.17 49.9875 1065.99 84.4774 1108.93 84.4774C1151.88 84.4774 1186.7 49.9875 1186.7 7.44203Z" fill="#F8C47A"/>
<path d="M1031.17 7.44203C1031.17 -35.1034 996.354 -69.5934 953.408 -69.5934C910.461 -69.5934 875.645 -35.1034 875.645 7.44202C875.645 49.9875 910.461 84.4774 953.408 84.4774C996.354 84.4774 1031.17 49.9875 1031.17 7.44203Z" fill="#F8C47A"/>
<path d="M875.646 162.232C875.646 119.286 841.156 84.4703 798.611 84.4703C756.065 84.4703 721.575 119.286 721.575 162.232C721.575 205.179 756.065 239.995 798.611 239.995C841.156 239.995 875.646 205.179 875.646 162.232Z" fill="#F8C47A"/>
<path d="M875.646 7.43817C875.646 -35.5087 841.156 -70.324 798.611 -70.324C756.065 -70.324 721.575 -35.5087 721.575 7.43817C721.575 50.385 756.065 85.2003 798.611 85.2003C841.156 85.2003 875.646 50.385 875.646 7.43817Z" fill="#F8C47A"/>
</g>
</svg>
