<svg width="1259" height="826" viewBox="0 0 1259 826" fill="none" xmlns="http://www.w3.org/2000/svg">
<rect x="-0.17041" y="0.0153809" width="1259.45" height="826.231" rx="60" fill="#00B8C2"/>
<mask id="mask0_724_973" style="mask-type:alpha" maskUnits="userSpaceOnUse" x="803" y="0" width="457" height="827">
<path d="M803.411 0.0153809H1213.18C1238.64 0.0153809 1259.27 20.6525 1259.27 46.1097V780.152C1259.27 805.609 1238.64 826.246 1213.18 826.246H803.411V0.0153809Z" fill="#02B7C2"/>
</mask>
<g mask="url(#mask0_724_973)">
<path d="M1340.67 627.912C1340.67 584.965 1306.18 550.149 1263.63 550.149C1221.09 550.149 1186.6 584.965 1186.6 627.912C1186.6 670.859 1221.09 705.675 1263.63 705.675C1306.18 705.675 1340.67 670.859 1340.67 627.912Z" fill="#81DBE1"/>
<path d="M1340.67 783.448C1340.67 740.5 1306.18 705.685 1263.63 705.685C1221.09 705.685 1186.6 740.5 1186.6 783.448C1186.6 826.395 1221.09 861.211 1263.63 861.211C1306.18 861.211 1340.67 826.395 1340.67 783.448Z" fill="#81DBE1"/>
<path d="M1340.67 473.12C1340.67 430.574 1306.18 396.084 1263.63 396.084C1221.09 396.084 1186.6 430.574 1186.6 473.12C1186.6 515.666 1221.09 550.156 1263.63 550.156C1306.18 550.156 1340.67 515.666 1340.67 473.12Z" fill="#81DBE1"/>
<path d="M1186.6 627.912C1186.6 584.965 1151.78 550.149 1108.83 550.149C1065.89 550.149 1031.07 584.965 1031.07 627.912C1031.07 670.859 1065.89 705.675 1108.83 705.675C1151.78 705.675 1186.6 670.859 1186.6 627.912Z" fill="#81DBE1"/>
<path d="M1186.6 783.448C1186.6 740.5 1151.78 705.685 1108.83 705.685C1065.89 705.685 1031.07 740.5 1031.07 783.448C1031.07 826.395 1065.89 861.211 1108.83 861.211C1151.78 861.211 1186.6 826.395 1186.6 783.448Z" fill="#81DBE1"/>
<path d="M1030.78 627.912C1030.78 584.965 995.963 550.149 953.016 550.149C910.068 550.149 875.253 584.965 875.253 627.912C875.253 670.859 910.068 705.675 953.016 705.675C995.963 705.675 1030.78 670.859 1030.78 627.912Z" fill="#81DBE1"/>
<path d="M1030.78 783.448C1030.78 740.5 995.963 705.685 953.016 705.685C910.068 705.685 875.253 740.5 875.253 783.448C875.253 826.395 910.068 861.211 953.016 861.211C995.963 861.211 1030.78 826.395 1030.78 783.448Z" fill="#81DBE1"/>
<path d="M1186.6 473.12C1186.6 430.574 1151.78 396.084 1108.83 396.084C1065.89 396.084 1031.07 430.574 1031.07 473.12C1031.07 515.666 1065.89 550.156 1108.83 550.156C1151.78 550.156 1186.6 515.666 1186.6 473.12Z" fill="#81DBE1"/>
<path d="M1186.6 318.311C1186.6 275.364 1151.78 240.548 1108.83 240.548C1065.89 240.548 1031.07 275.364 1031.07 318.311C1031.07 361.258 1065.89 396.074 1108.83 396.074C1151.78 396.074 1186.6 361.258 1186.6 318.311Z" fill="#81DBE1"/>
<path d="M1342.41 318.311C1342.41 275.364 1307.6 240.548 1264.65 240.548C1221.7 240.548 1186.89 275.364 1186.89 318.311C1186.89 361.258 1221.7 396.074 1264.65 396.074C1307.6 396.074 1342.41 361.258 1342.41 318.311Z" fill="#81DBE1"/>
<path d="M1031.07 473.12C1031.07 430.574 996.255 396.084 953.308 396.084C910.36 396.084 875.545 430.574 875.545 473.12C875.545 515.666 910.36 550.156 953.308 550.156C996.255 550.156 1031.07 515.666 1031.07 473.12Z" fill="#81DBE1"/>
<path d="M1031.07 318.311C1031.07 275.364 996.255 240.548 953.308 240.548C910.36 240.548 875.545 275.364 875.545 318.311C875.545 361.258 910.36 396.074 953.308 396.074C996.255 396.074 1031.07 361.258 1031.07 318.311Z" fill="#81DBE1"/>
<path d="M875.544 627.912C875.544 584.965 841.054 550.149 798.508 550.149C755.962 550.149 721.472 584.965 721.472 627.912C721.472 670.859 755.962 705.675 798.508 705.675C841.054 705.675 875.544 670.859 875.544 627.912Z" fill="#81DBE1"/>
<path d="M875.544 783.448C875.544 740.5 841.054 705.685 798.508 705.685C755.962 705.685 721.472 740.5 721.472 783.448C721.472 826.395 755.962 861.211 798.508 861.211C841.054 861.211 875.544 826.395 875.544 783.448Z" fill="#81DBE1"/>
<path d="M875.544 473.116C875.544 430.169 841.054 395.353 798.508 395.353C755.962 395.353 721.472 430.169 721.472 473.116C721.472 516.064 755.962 550.879 798.508 550.879C841.054 550.879 875.544 516.064 875.544 473.116Z" fill="#81DBE1"/>
<path d="M875.544 318.311C875.544 275.364 841.054 240.548 798.508 240.548C755.962 240.548 721.472 275.364 721.472 318.311C721.472 361.258 755.962 396.074 798.508 396.074C841.054 396.074 875.544 361.258 875.544 318.311Z" fill="#81DBE1"/>
<path d="M1340.67 162.249C1340.67 119.302 1306.18 84.4864 1263.63 84.4864C1221.09 84.4864 1186.6 119.302 1186.6 162.249C1186.6 205.197 1221.09 240.012 1263.63 240.012C1306.18 240.012 1340.67 205.197 1340.67 162.249Z" fill="#81DBE1"/>
<path d="M1340.67 7.45747C1340.67 -35.0884 1306.18 -69.5787 1263.63 -69.5787C1221.09 -69.5787 1186.6 -35.0884 1186.6 7.45747C1186.6 50.0033 1221.09 84.4936 1263.63 84.4936C1306.18 84.4936 1340.67 50.0033 1340.67 7.45747Z" fill="#81DBE1"/>
<path d="M1186.6 162.249C1186.6 119.302 1151.78 84.4864 1108.83 84.4864C1065.89 84.4864 1031.07 119.302 1031.07 162.249C1031.07 205.197 1065.89 240.012 1108.83 240.012C1151.78 240.012 1186.6 205.197 1186.6 162.249Z" fill="#81DBE1"/>
<path d="M1030.78 162.249C1030.78 119.302 995.963 84.4864 953.015 84.4864C910.068 84.4864 875.252 119.302 875.252 162.249C875.252 205.197 910.068 240.012 953.015 240.012C995.963 240.012 1030.78 205.197 1030.78 162.249Z" fill="#81DBE1"/>
<path d="M1186.6 7.45747C1186.6 -35.0884 1151.78 -69.5787 1108.83 -69.5787C1065.89 -69.5787 1031.07 -35.0884 1031.07 7.45747C1031.07 50.0033 1065.89 84.4936 1108.83 84.4936C1151.78 84.4936 1186.6 50.0033 1186.6 7.45747Z" fill="#81DBE1"/>
<path d="M1031.07 7.45747C1031.07 -35.0884 996.254 -69.5787 953.306 -69.5787C910.359 -69.5787 875.543 -35.0884 875.543 7.45747C875.543 50.0033 910.359 84.4936 953.306 84.4936C996.254 84.4936 1031.07 50.0033 1031.07 7.45747Z" fill="#81DBE1"/>
<path d="M875.544 162.249C875.544 119.302 841.054 84.4864 798.508 84.4864C755.962 84.4864 721.472 119.302 721.472 162.249C721.472 205.197 755.962 240.012 798.508 240.012C841.054 240.012 875.544 205.197 875.544 162.249Z" fill="#81DBE1"/>
<path d="M875.544 7.45361C875.544 -35.4936 841.054 -70.3093 798.508 -70.3093C755.962 -70.3093 721.472 -35.4936 721.472 7.45361C721.472 50.4009 755.962 85.2165 798.508 85.2165C841.054 85.2165 875.544 50.4009 875.544 7.45361Z" fill="#81DBE1"/>
</g>
</svg>
