<svg width="88" height="88" viewBox="0 0 88 88" fill="none" xmlns="http://www.w3.org/2000/svg">
<circle cx="44" cy="43.9999" r="43.9272" fill="#F5F5F5"/>
<path fill-rule="evenodd" clip-rule="evenodd" d="M20.0936 20.8021C20.592 19.5987 21.7664 18.814 23.0691 18.814H63.3388C64.6415 18.814 65.8158 19.5987 66.3143 20.8021C66.8128 22.0056 66.5373 23.3909 65.6162 24.312L27.1835 62.7446H60.8164L48.8224 50.7506C47.5647 49.4929 47.5647 47.4536 48.8224 46.1959C50.0802 44.9382 52.1194 44.9382 53.3771 46.1959L70.8692 63.6879C71.7903 64.609 72.0658 65.9943 71.5673 67.1978C71.0688 68.4013 69.8944 69.1859 68.5918 69.1859H19.4082C18.1055 69.1859 16.9312 68.4013 16.4327 67.1978C15.9342 65.9943 16.2097 64.609 17.1308 63.6879L55.5635 25.2553H30.8444L39.0637 33.4746C40.3215 34.7324 40.3215 36.7716 39.0637 38.0293C37.806 39.2871 35.7668 39.2871 34.509 38.0293L20.7917 24.312C19.8706 23.3909 19.5951 22.0056 20.0936 20.8021Z" fill="url(#paint0_linear_63_1136)"/>
<defs>
<linearGradient id="paint0_linear_63_1136" x1="44" y1="18.814" x2="43.354" y2="85.7173" gradientUnits="userSpaceOnUse">
<stop stop-color="#0361F0"/>
<stop offset="1" stop-opacity="0"/>
</linearGradient>
</defs>
</svg>
