<svg width="180" height="31" viewBox="0 0 180 31" fill="none" xmlns="http://www.w3.org/2000/svg">
<g id="Group 1000007673">
<g id="Group">
<path id="Vector" d="M40.6565 6.68743C40.8312 9.89734 38.682 12.6487 35.7 13.4741C35.6597 13.5003 35.6328 13.5134 35.6059 13.5265C32.6911 14.2864 30.5419 16.8805 30.5419 19.9725C30.5419 19.9987 30.5151 20.038 30.4882 20.0773C30.0718 23.3658 27.1838 25.9076 23.7048 25.9076H23.5705C20.0915 25.9076 17.2035 23.3658 16.7871 20.0773C16.7468 20.0249 16.7334 19.9987 16.7334 19.9725C16.7334 16.8936 14.5842 14.2864 11.6694 13.5265C11.6425 13.5134 11.6157 13.5003 11.5754 13.4741C8.59337 12.6487 6.44419 9.89734 6.61881 6.68743C6.79343 3.35961 9.53364 0.634466 12.9455 0.398636C16.9483 0.123502 20.2796 3.21549 20.2796 7.05428C20.2796 7.09358 20.2796 7.14599 20.2796 7.18529C20.4676 8.61337 21.1124 9.93664 22.1064 10.9586C22.9392 11.8102 24.3227 11.8102 25.1555 10.9586C26.1495 9.93664 26.8077 8.61337 26.9823 7.18529C26.9823 7.14599 26.9823 7.09358 26.9823 7.05428C26.9823 3.21549 30.3136 0.123502 34.3164 0.398636C37.7148 0.634466 40.4685 3.35961 40.6565 6.68743Z" fill="#00B8C2"/>
<path id="Vector_2" d="M39.9179 30.0872C43.6939 30.0872 46.755 27.1015 46.755 23.4185C46.755 19.7355 43.6939 16.7498 39.9179 16.7498C36.1419 16.7498 33.0808 19.7355 33.0808 23.4185C33.0808 27.1015 36.1419 30.0872 39.9179 30.0872Z" fill="#FDB515"/>
<path id="Vector_3" d="M7.18304 30.1527C10.9591 30.1527 14.0201 27.167 14.0201 23.4839C14.0201 19.8009 10.9591 16.8152 7.18304 16.8152C3.40702 16.8152 0.345947 19.8009 0.345947 23.4839C0.345947 27.167 3.40702 30.1527 7.18304 30.1527Z" fill="#FDB515"/>
</g>
<g id="Group 25">
<path id="Vector_4" d="M146.396 5.86133C147.976 5.86133 149.257 4.61192 149.257 3.07068C149.257 1.52945 147.976 0.280029 146.396 0.280029C144.816 0.280029 143.535 1.52945 143.535 3.07068C143.535 4.61192 144.816 5.86133 146.396 5.86133Z" fill="#063A4F"/>
<g id="Group_2">
<path id="Vector_5" d="M70.0455 24.1511H65.183C64.9009 24.1511 64.6725 23.9284 64.6725 23.6533C64.6725 23.6402 64.6725 23.6271 64.6725 23.6009C64.6725 20.5613 64.6725 17.5348 64.6591 14.4952C64.6457 13.1982 63.9606 12.2548 62.8457 11.9535C61.1935 11.508 59.7697 12.4121 59.5414 14.0629C59.4876 14.4559 59.4608 14.849 59.4608 15.242C59.4473 18.0065 59.4608 20.7709 59.4608 23.5354V23.6271C59.4608 23.9022 59.2324 24.1249 58.9503 24.1249H54.1684C53.8863 24.1249 53.658 23.9022 53.658 23.6271V7.62995C53.658 7.35482 53.8863 7.13209 54.1684 7.13209H58.3459C58.6279 7.13209 58.8563 7.35482 58.8563 7.62995C58.8563 8.04921 59.3399 8.27194 59.6891 8.023C60.9652 7.05348 62.4293 6.71284 64.0278 6.72594C65.8277 6.72594 67.3993 7.2107 68.6082 8.53397C68.8097 8.7567 69.1589 8.7436 69.3604 8.53397C70.3141 7.57755 71.4962 7.06658 72.8529 6.87006C75.3244 6.50321 77.6482 6.73904 79.5691 8.50777C80.778 9.62141 81.463 11.0364 81.5705 12.6217C81.7048 14.5476 81.6779 16.4867 81.6914 18.4126C81.7048 20.142 81.6914 21.8846 81.6914 23.6402C81.6914 23.9153 81.463 24.138 81.1809 24.138H76.3184C76.0363 24.138 75.808 23.9153 75.808 23.6402C75.808 23.6271 75.808 23.614 75.808 23.6009C75.808 20.5482 75.8483 17.4955 75.7811 14.4559C75.7005 12.2548 73.9543 11.5342 72.235 12.019C71.1872 12.3203 70.5694 13.3423 70.5559 14.7311C70.5425 17.692 70.5559 20.6399 70.5559 23.6009C70.5559 23.6271 70.5559 23.6402 70.5559 23.6664C70.5559 23.9284 70.3276 24.1511 70.0455 24.1511Z" fill="#063A4F"/>
<path id="Vector_6" d="M100.644 9.57015C98.656 7.39527 96.0636 6.54366 93.1353 6.54366C92.7995 6.54366 92.4637 6.53056 92.1144 6.54366C91.8727 6.55677 91.6309 6.59607 91.4025 6.63538C88.7832 7.05463 86.5669 8.15517 85.049 10.33C83.558 12.4656 83.155 14.8632 83.6117 17.3918C84.055 19.8156 85.2908 21.7809 87.4265 23.1566C89.4817 24.4798 91.7652 24.8991 94.1965 24.7026C96.171 24.5322 97.9844 23.9034 99.556 22.6849C101.598 21.0996 102.632 18.964 102.86 16.4747C103.075 13.8937 102.431 11.5354 100.644 9.57015ZM93.1622 19.737C90.7846 19.737 89.1593 18.06 89.1593 15.61C89.1593 13.1862 90.7712 11.5354 93.1622 11.5354C95.5531 11.5354 97.1785 13.1993 97.1785 15.61C97.1785 18.0469 95.5397 19.7239 93.1622 19.737Z" fill="#063A4F"/>
<path id="Vector_7" d="M121.841 24.1517H116.763C116.548 24.1517 116.387 23.9813 116.387 23.7848V23.6014C116.387 20.7845 116.401 17.9677 116.374 15.1639C116.374 14.6792 116.32 14.1813 116.199 13.7228C115.836 12.3733 114.721 11.7182 113.069 11.823C111.78 11.9016 110.786 12.7925 110.611 14.0765C110.557 14.4695 110.531 14.8626 110.531 15.2556C110.517 18.0201 110.531 20.7845 110.531 23.549V23.7717C110.531 23.9813 110.356 24.1386 110.154 24.1386H105.104C104.889 24.1386 104.728 23.9682 104.728 23.7717V7.51257C104.728 7.30294 104.902 7.14572 105.104 7.14572H109.859C110.074 7.14572 110.235 7.31604 110.235 7.51257V7.7484C110.235 8.06284 110.625 8.23316 110.866 8.02353C111.014 7.89252 111.175 7.7746 111.337 7.66979C115.339 5.04946 121.075 7.35535 122.015 11.9671C122.15 12.6484 122.23 13.369 122.23 14.0634C122.257 17.2995 122.244 20.5356 122.244 23.7717C122.23 23.9944 122.056 24.1517 121.841 24.1517Z" fill="#063A4F"/>
<path id="Vector_8" d="M129.497 24.1523H124.42C124.218 24.1523 124.057 23.9951 124.057 23.7986V7.487C124.057 7.29047 124.218 7.13325 124.42 7.13325H129.202C129.403 7.13325 129.564 7.29047 129.564 7.487V7.77523C129.564 8.07657 129.94 8.24689 130.169 8.05037C130.33 7.91935 130.491 7.78834 130.652 7.68352C134.655 5.06319 140.391 7.36908 141.331 11.9809C141.465 12.6622 141.546 13.3827 141.546 14.0771C141.573 17.3132 141.559 20.5493 141.559 23.7855C141.559 23.982 141.385 24.1392 141.197 24.1392H136.092C135.891 24.1392 135.73 23.982 135.73 23.7855C135.73 23.7331 135.73 23.6675 135.73 23.6151C135.73 20.7983 135.743 17.9814 135.716 15.1777C135.716 14.6929 135.663 14.195 135.542 13.7365C135.179 12.387 134.064 11.7319 132.412 11.8367C131.122 11.9154 130.128 12.8063 129.954 14.0902C129.9 14.4833 129.873 14.8763 129.873 15.2694C129.86 18.0338 129.873 20.7983 129.873 23.5627V23.8117C129.86 23.982 129.699 24.1523 129.497 24.1523Z" fill="#063A4F"/>
<path id="Vector_9" d="M179.654 7.10638C179.587 7.28981 179.547 7.43393 179.493 7.56494C176.39 15.0984 173.274 22.6187 170.171 30.1653H164.234C164.946 28.3442 165.657 26.5361 166.383 24.7281C166.517 24.4137 166.504 24.1516 166.369 23.8503C164.583 19.8805 162.796 15.9107 161.01 11.9409H159.962C159.734 11.9409 159.546 12.1243 159.546 12.347V23.7193C159.546 23.942 159.358 24.1254 159.129 24.1254H154.079C153.85 24.1254 153.662 23.942 153.662 23.7193V12.3601C153.662 12.1374 153.474 11.954 153.246 11.954H151.419C151.191 11.954 151.003 11.7706 151.003 11.5478V7.51254C151.003 7.28981 151.191 7.10638 151.419 7.10638H153.635C153.635 7.14569 153.635 7.15879 153.649 7.10638V7.06708C153.649 7.01467 153.662 6.94917 153.662 6.84435C153.716 6.05825 153.783 5.23285 154.025 4.48606C154.737 2.29808 156.429 1.15824 158.632 0.647272C159.908 0.345934 162.272 0.319731 163.562 0.542459C163.656 0.555561 163.898 0.581764 164.126 0.607967C164.341 0.634171 164.502 0.804492 164.502 1.01412V4.76119C164.502 4.98392 164.314 5.16734 164.086 5.16734C163.307 5.16734 161.91 5.16734 161.507 5.16734C160.271 5.16734 159.599 5.79622 159.559 6.96227C159.559 6.94917 159.559 6.93606 159.559 6.92296C159.559 6.4382 159.559 6.85745 159.559 7.11949C159.559 7.27671 159.559 7.36842 159.559 7.11949C161.319 7.11949 163.038 7.11949 164.757 7.13259C164.811 7.13259 164.865 7.13259 164.905 7.13259H164.986C165.107 7.13259 165.281 7.32911 165.335 7.47323C166.625 10.4997 167.901 13.5262 169.19 16.5527C169.257 16.723 169.338 16.8933 169.445 17.1422C169.996 15.7797 170.52 14.4957 171.03 13.1987C171.783 11.312 172.548 9.43848 173.274 7.55184C173.408 7.2112 173.569 7.11949 173.945 7.11949C175.812 7.11949 177.693 7.10638 179.654 7.10638Z" fill="#063A4F"/>
<path id="Vector_10" d="M153.65 7.05447C153.65 7.06757 153.65 7.08068 153.65 7.09378H153.636C153.622 6.94966 153.65 6.4911 153.65 7.05447Z" fill="#063A4F"/>
<path id="Vector_11" d="M164.744 7.11969C163.024 7.10659 161.305 7.10659 159.545 7.10659C159.545 7.26381 159.545 7.35552 159.545 7.10659C159.545 6.85766 159.545 6.43841 159.545 6.91007C159.545 6.92317 159.545 6.93627 159.545 6.94937C159.545 6.98868 159.559 7.02798 159.572 7.09349H164.609C164.649 7.09349 164.703 7.10659 164.744 7.11969Z" fill="#063A4F"/>
<path id="Vector_12" d="M149.176 7.57796V23.693C149.176 23.9419 148.974 24.1385 148.719 24.1385H143.856C143.601 24.1385 143.4 23.9419 143.4 23.693V7.57796C143.4 7.32903 143.601 7.13251 143.856 7.13251H148.719C148.974 7.13251 149.176 7.32903 149.176 7.57796Z" fill="#063A4F"/>
</g>
</g>
</g>
</svg>
