<svg width="192" height="63" viewBox="0 0 192 63" fill="none" xmlns="http://www.w3.org/2000/svg">
<rect x="4.4082" y="0.00976562" width="188" height="44" rx="22" transform="rotate(5.75 4.4082 0.00976562)" fill="#063A4F"/>
<path d="M15.4435 31.2727L16.0615 25.1357L14.1989 24.9481L14.3528 23.4199L16.2154 23.6074L16.4125 21.6493L14.5499 21.4618L14.7038 19.9335L16.5664 20.1211L17.1603 14.2229L19.6438 14.4729L21.3184 20.5995L24.1361 20.8833L24.73 14.9851L26.6165 15.1751L26.0226 21.0732L27.8852 21.2608L27.7313 22.7891L25.8687 22.6015L25.6715 24.5596L27.5341 24.7472L27.3802 26.2754L25.5176 26.0879L24.8997 32.2248L22.3924 31.9724L20.7418 25.607L17.924 25.3232L17.3061 31.4602L15.4435 31.2727ZM18.0779 23.795L20.3226 24.021L19.8034 21.9908L18.2273 21.8321L18.0779 23.795ZM23.3523 28.6679L23.4478 28.6775L23.6551 25.9003L22.6521 25.7993L23.3523 28.6679ZM18.3812 20.3038L19.3842 20.4048L18.6794 17.3428L18.5839 17.3331L18.3812 20.3038ZM22.2329 24.2134L23.8328 24.3745L23.9822 22.4116L21.7137 22.1831L22.2329 24.2134ZM36.4397 33.3869C36.2805 33.3708 36.1508 33.3015 36.0506 33.1788C35.9504 33.0562 35.9083 32.9152 35.9243 32.7561L36.2321 29.6995L28.6624 28.9373C28.4872 28.9196 28.3496 28.8495 28.2494 28.7268C28.1651 28.6058 28.1309 28.4657 28.147 28.3065L28.3105 26.6827C28.3201 26.5872 28.3472 26.4773 28.3919 26.3532C28.4541 26.2147 28.5385 26.0946 28.6453 25.9928L36.6731 16.9355C36.9073 16.6857 37.2154 16.58 37.5975 16.6185L40.2004 16.8806C40.3595 16.8966 40.4893 16.966 40.5895 17.0886C40.6897 17.2113 40.7318 17.3522 40.7157 17.5114L39.7395 27.2064L41.8648 27.4204C42.0558 27.4396 42.1935 27.5098 42.2778 27.6308C42.3796 27.7375 42.4217 27.8785 42.404 28.0536L42.2357 29.7251C42.2197 29.8843 42.1504 30.014 42.0277 30.1142C41.905 30.2145 41.7641 30.2566 41.6049 30.2405L39.4558 30.0241L39.148 33.0807C39.132 33.2399 39.0626 33.3696 38.94 33.4698C38.8173 33.57 38.6764 33.6121 38.5172 33.5961L36.4397 33.3869ZM31.6826 26.4916L36.5778 26.9845L37.2727 20.0834L31.6826 26.4916ZM49.8655 35.0041C48.4964 34.8662 47.3647 34.5272 46.4703 33.9868C45.5775 33.4306 44.9213 32.7615 44.5015 31.9795C44.0977 31.1991 43.9215 30.3934 43.973 29.5624C43.9715 29.4175 44.0226 29.3101 44.1261 29.2401C44.2471 29.1558 44.3793 29.1209 44.5226 29.1353L46.7433 29.3589C46.9185 29.3765 47.0577 29.4308 47.1612 29.5216C47.2821 29.5981 47.3656 29.7271 47.4116 29.9086C47.5227 30.4022 47.7063 30.8147 47.9624 31.146C48.2344 31.479 48.5543 31.7363 48.9219 31.918C49.3055 32.1014 49.7122 32.2147 50.142 32.258C50.7151 32.3157 51.2437 32.2564 51.7278 32.08C52.2294 31.8893 52.6468 31.5775 52.9798 31.1447C53.3128 30.7119 53.513 30.1612 53.5804 29.4926C53.6397 28.9035 53.5556 28.3805 53.3283 27.9234C53.1009 27.4663 52.7605 27.0944 52.307 26.8075C51.8709 26.5063 51.3505 26.3252 50.7455 26.2643C50.2998 26.2194 49.928 26.2383 49.6302 26.3208C49.3325 26.4034 49.0729 26.5059 48.8515 26.6284C48.6461 26.7524 48.4581 26.8621 48.2877 26.9575C48.1332 27.0546 47.9604 27.0934 47.7694 27.0742L45.5725 26.853C45.4292 26.8386 45.3067 26.778 45.2049 26.6712C45.1206 26.5502 45.0856 26.418 45.1001 26.2747L46.7582 18.1922C46.795 17.9868 46.8826 17.8349 47.0212 17.7363C47.1598 17.6376 47.3166 17.5972 47.4917 17.6148L56.4703 18.5189C56.6295 18.5349 56.7592 18.6043 56.8594 18.7269C56.9597 18.8496 57.0018 18.9905 56.9857 19.1497L56.8246 20.7496C56.8086 20.9088 56.7392 21.0385 56.6166 21.1387C56.4939 21.2389 56.353 21.281 56.1938 21.265L49.2927 20.5701L48.5187 24.4239C48.8245 24.2618 49.225 24.1172 49.7202 23.9901C50.2154 23.8631 50.8849 23.8421 51.7286 23.927C52.4928 24.004 53.2043 24.2043 53.8632 24.5279C54.5396 24.8372 55.1244 25.2579 55.6176 25.79C56.1123 26.3062 56.4773 26.9138 56.7124 27.6129C56.9651 28.2977 57.049 29.0619 56.964 29.9056C56.847 31.0678 56.4746 32.0514 55.8467 32.8565C55.2189 33.6617 54.3954 34.2542 53.3762 34.634C52.357 35.0138 51.1868 35.1372 49.8655 35.0041ZM65.2012 36.5242C64.1505 36.4184 63.224 36.1965 62.4219 35.8584C61.6197 35.5203 60.9553 35.0916 60.4287 34.5722C59.918 34.0545 59.5427 33.4699 59.3027 32.8186C59.0787 32.1689 59.0052 31.462 59.0821 30.6978C59.1751 29.7745 59.4781 29.001 59.9912 28.3772C60.5218 27.7392 61.1716 27.274 61.9408 26.9815C61.3887 26.5561 60.9743 26.04 60.6977 25.4332C60.437 24.828 60.3451 24.1434 60.4221 23.3793C60.515 22.4559 60.8268 21.6752 61.3574 21.0372C61.9055 20.3848 62.6454 19.9045 63.577 19.5963C64.5244 19.2897 65.6429 19.2013 66.9324 19.3311C68.2219 19.461 69.2923 19.7698 70.1437 20.2575C70.9968 20.7294 71.6188 21.3388 72.01 22.0857C72.4027 22.8167 72.5526 23.6439 72.4596 24.5673C72.3827 25.3314 72.1562 25.984 71.7801 26.525C71.404 27.0661 70.9101 27.4988 70.2985 27.8231C71.0115 28.2487 71.5556 28.8341 71.9308 29.5795C72.3076 30.3089 72.4495 31.1353 72.3566 32.0586C72.2556 33.0615 71.9031 33.9266 71.2992 34.6537C70.7129 35.3666 69.8958 35.8954 68.848 36.2401C67.8177 36.5706 66.6021 36.6653 65.2012 36.5242ZM65.4512 34.0408C66.0721 34.1033 66.6397 34.0559 67.154 33.8986C67.6859 33.7271 68.1151 33.4567 68.4418 33.0876C68.7843 32.7201 68.9828 32.2657 69.0373 31.7244C69.0934 31.1672 68.9895 30.6824 68.7255 30.2698C68.479 29.843 68.1115 29.5004 67.6229 29.2422C67.1518 28.9696 66.6059 28.8021 65.985 28.7396C65.3642 28.6771 64.7878 28.7316 64.2559 28.9032C63.7416 29.0604 63.3131 29.3228 62.9706 29.6903C62.6456 30.0436 62.455 30.4988 62.3989 31.0559C62.3444 31.5972 62.4404 32.0813 62.6869 32.5081C62.9493 32.9365 63.316 33.287 63.7871 33.5596C64.2756 33.8179 64.8304 33.9782 65.4512 34.0408ZM66.2231 26.3755C66.75 26.4125 67.238 26.3571 67.6871 26.2094C68.1521 26.0632 68.5279 25.8438 68.8147 25.551C69.119 25.244 69.2944 24.8596 69.3409 24.3979C69.3874 23.9363 69.3001 23.5255 69.079 23.1655C68.8755 22.7912 68.5605 22.4861 68.134 22.2502C67.7234 22.0159 67.2395 21.8707 66.6823 21.8146C66.1252 21.7585 65.6141 21.8035 65.1491 21.9497C64.7 22.0974 64.3305 22.3336 64.0405 22.6582C63.7681 22.9684 63.6086 23.3544 63.5621 23.816C63.5156 24.2777 63.5949 24.6877 63.8001 25.0461C64.0211 25.406 64.3369 25.7032 64.7475 25.9375C65.174 26.1734 65.6659 26.3194 66.2231 26.3755ZM74.1527 38.9935C74.0095 38.979 73.9028 38.9201 73.8329 38.8165C73.7629 38.713 73.7431 38.5904 73.7734 38.4487L74.8269 34.4542C74.8796 34.2504 74.9689 34.0825 75.0947 33.9505C75.2381 33.8041 75.4292 33.7429 75.668 33.767L77.8649 33.9882C77.9922 34.001 78.0909 34.0592 78.1609 34.1627C78.2325 34.2503 78.2618 34.3578 78.249 34.4852C78.2378 34.5966 78.2035 34.6977 78.1461 34.7884L76.2187 38.5985C76.139 38.7512 76.0299 38.8769 75.8913 38.9756C75.767 39.0917 75.5935 39.1385 75.3706 39.1161L74.1527 38.9935ZM88.3724 38.6162C88.2132 38.6002 88.0835 38.5308 87.9833 38.4082C87.8831 38.2855 87.841 38.1446 87.857 37.9854L88.1648 34.9289L80.5951 34.1666C80.4199 34.149 80.2823 34.0788 80.1821 33.9562C80.0978 33.8351 80.0636 33.695 80.0797 33.5358L80.2432 31.912C80.2528 31.8165 80.2799 31.7067 80.3246 31.5825C80.3868 31.4441 80.4712 31.3239 80.578 31.2221L88.6058 22.1648C88.84 21.915 89.1481 21.8094 89.5302 21.8478L92.133 22.1099C92.2922 22.126 92.4219 22.1953 92.5222 22.318C92.6224 22.4406 92.6645 22.5815 92.6484 22.7407L91.6722 32.4357L93.7975 32.6497C93.9885 32.669 94.1262 32.7391 94.2105 32.8602C94.3123 32.9669 94.3544 33.1078 94.3367 33.2829L94.1684 34.9545C94.1524 35.1137 94.083 35.2434 93.9604 35.3436C93.8377 35.4438 93.6968 35.4859 93.5376 35.4699L91.3885 35.2535L91.0807 38.31C91.0647 38.4692 90.9953 38.5989 90.8727 38.6991C90.75 38.7993 90.6091 38.8414 90.4499 38.8254L88.3724 38.6162ZM83.6153 31.7209L88.5105 32.2138L89.2054 25.3127L83.6153 31.7209ZM98.7714 39.6633C98.6282 39.6489 98.5136 39.5891 98.4277 39.484C98.3434 39.3629 98.3084 39.2308 98.3229 39.0875C98.3309 39.0079 98.3453 38.945 98.366 38.8989C98.4026 38.8543 98.4305 38.8169 98.4496 38.7867L102.448 34.2927C102.122 34.3402 101.784 34.3384 101.435 34.2872C100.641 34.1911 99.9081 33.9645 99.2365 33.6075C98.5824 33.2361 98.0176 32.7772 97.5419 32.2308C97.0838 31.67 96.7363 31.0481 96.4996 30.3649C96.2804 29.6675 96.21 28.9287 96.2886 28.1486C96.3607 27.4323 96.5666 26.7454 96.9061 26.0882C97.2473 25.4149 97.7086 24.8262 98.29 24.3219C98.8874 23.8192 99.6001 23.4488 100.428 23.2105C101.274 22.958 102.238 22.8862 103.32 22.9952C104.387 23.1026 105.311 23.3484 106.092 23.7326C106.874 24.1169 107.508 24.6069 107.995 25.2026C108.499 25.7841 108.852 26.4307 109.054 27.1425C109.271 27.8559 109.342 28.5946 109.265 29.3588C109.196 30.0433 109.02 30.6689 108.738 31.2355C108.456 31.802 108.123 32.3152 107.739 32.7751C107.372 33.2206 107.007 33.6582 106.642 34.0878L101.852 39.4911C101.78 39.5643 101.675 39.6582 101.534 39.7727C101.412 39.8729 101.231 39.911 100.992 39.887L98.7714 39.6633ZM102.454 31.8329C103.028 31.8906 103.557 31.8233 104.043 31.631C104.546 31.4244 104.955 31.1119 105.271 30.6934C105.604 30.2606 105.802 29.7337 105.864 29.1129C105.928 28.4761 105.839 27.9204 105.598 27.4458C105.374 26.9569 105.035 26.569 104.581 26.2821C104.129 25.9793 103.625 25.7998 103.068 25.7437C102.495 25.686 101.956 25.7605 101.453 25.9671C100.967 26.1594 100.558 26.472 100.225 26.9048C99.9095 27.3233 99.7197 27.8509 99.6555 28.4877C99.593 29.1085 99.6738 29.6634 99.898 30.1523C100.14 30.6269 100.478 31.0148 100.915 31.316C101.368 31.6029 101.881 31.7752 102.454 31.8329ZM118.291 41.6289C118.132 41.6129 118.003 41.5435 117.902 41.4209C117.802 41.2982 117.76 41.1573 117.776 40.9981L118.084 37.9415L110.514 37.1793C110.339 37.1617 110.201 37.0915 110.101 36.9689C110.017 36.8478 109.983 36.7077 109.999 36.5485L110.162 34.9247C110.172 34.8292 110.199 34.7194 110.244 34.5952C110.306 34.4567 110.39 34.3366 110.497 34.2348L118.525 25.1775C118.759 24.9277 119.067 24.8221 119.449 24.8605L122.052 25.1226C122.211 25.1386 122.341 25.208 122.441 25.3306C122.541 25.4533 122.583 25.5942 122.567 25.7534L121.591 35.4484L123.716 35.6624C123.908 35.6816 124.045 35.7518 124.129 35.8728C124.231 35.9796 124.273 36.1205 124.256 36.2956L124.087 37.9672C124.071 38.1264 124.002 38.2561 123.879 38.3563C123.757 38.4565 123.616 38.4986 123.457 38.4826L121.307 38.2662L121 41.3227C120.984 41.4819 120.914 41.6116 120.792 41.7118C120.669 41.812 120.528 41.8541 120.369 41.8381L118.291 41.6289ZM113.534 34.7336L118.43 35.2265L119.124 28.3254L113.534 34.7336ZM125.432 44.1571C125.289 44.1426 125.183 44.0837 125.113 43.9801C125.043 43.8766 125.023 43.754 125.053 43.6123L126.107 39.6178C126.159 39.414 126.249 39.2461 126.374 39.1141C126.518 38.9677 126.709 38.9065 126.948 38.9306L129.145 39.1518C129.272 39.1646 129.371 39.2228 129.441 39.3263C129.512 39.4139 129.542 39.5214 129.529 39.6488C129.518 39.7602 129.483 39.8613 129.426 39.952L127.498 43.7621C127.419 43.9148 127.31 44.0405 127.171 44.1392C127.047 44.2553 126.873 44.3021 126.65 44.2797L125.432 44.1571ZM133.867 43.1973C133.724 43.1829 133.61 43.1231 133.524 43.018C133.439 42.8969 133.404 42.7648 133.419 42.6215C133.427 42.5419 133.441 42.479 133.462 42.4328C133.499 42.3883 133.526 42.3509 133.546 42.3207L137.544 37.8266C137.218 37.8742 136.88 37.8724 136.531 37.8212C135.737 37.7251 135.004 37.4985 134.332 37.1414C133.678 36.77 133.114 36.3111 132.638 35.7647C132.18 35.204 131.832 34.5821 131.596 33.8989C131.376 33.2014 131.306 32.4627 131.385 31.6826C131.457 30.9662 131.663 30.2794 132.002 29.6221C132.343 28.9489 132.805 28.3602 133.386 27.8559C133.983 27.3532 134.696 26.9828 135.524 26.7445C136.37 26.492 137.334 26.4202 138.416 26.5292C139.483 26.6366 140.407 26.8824 141.188 27.2666C141.97 27.6508 142.604 28.1408 143.091 28.7366C143.595 29.3181 143.948 29.9647 144.15 30.6765C144.367 31.3899 144.438 32.1286 144.361 32.8928C144.292 33.5773 144.116 34.2029 143.834 34.7694C143.552 35.336 143.219 35.8492 142.835 36.3091C142.468 36.7546 142.102 37.1922 141.738 37.6218L136.948 43.0251C136.876 43.0983 136.771 43.1921 136.63 43.3067C136.508 43.4069 136.327 43.445 136.088 43.4209L133.867 43.1973ZM137.55 35.3669C138.124 35.4246 138.653 35.3573 139.139 35.165C139.642 34.9584 140.051 34.6458 140.367 34.2273C140.7 33.7945 140.898 33.2677 140.96 32.6468C141.024 32.0101 140.935 31.4544 140.694 30.9798C140.47 30.4908 140.131 30.1029 139.677 29.8161C139.225 29.5133 138.721 29.3338 138.164 29.2777C137.59 29.22 137.052 29.2945 136.549 29.5011C136.063 29.6934 135.654 30.0059 135.321 30.4387C135.005 30.8572 134.816 31.3849 134.752 32.0217C134.689 32.6425 134.77 33.1974 134.994 33.6863C135.236 34.1609 135.574 34.5488 136.01 34.85C136.464 35.1369 136.977 35.3092 137.55 35.3669ZM152.02 45.2664C150.89 45.1526 149.943 44.8884 149.181 44.474C148.419 44.0595 147.813 43.5321 147.362 42.8918C146.912 42.2515 146.598 41.5364 146.421 40.7467C146.244 39.941 146.177 39.0979 146.217 38.2175C146.244 37.7861 146.276 37.3149 146.311 36.8039C146.364 36.2785 146.417 35.7532 146.47 35.2278C146.539 34.7041 146.603 34.2201 146.664 33.776C146.784 32.9036 147.018 32.099 147.366 31.3621C147.715 30.6093 148.173 29.972 148.74 29.4502C149.323 28.93 150.029 28.5428 150.859 28.2887C151.689 28.0345 152.653 27.9627 153.751 28.0733C154.866 28.1855 155.804 28.4489 156.566 28.8633C157.329 29.2778 157.936 29.7972 158.387 30.4216C158.855 31.0476 159.177 31.7635 159.353 32.5692C159.547 33.3606 159.615 34.1957 159.559 35.0744C159.546 35.5234 159.513 36.0105 159.46 36.5359C159.407 37.0612 159.354 37.5866 159.301 38.1119C159.25 38.6213 159.187 39.0894 159.112 39.516C158.992 40.3883 158.765 41.2017 158.432 41.9561C158.1 42.6946 157.65 43.3327 157.081 43.8705C156.513 44.4082 155.805 44.8033 154.96 45.0559C154.13 45.31 153.15 45.3802 152.02 45.2664ZM152.296 42.5203C153.331 42.6245 154.121 42.3663 154.666 41.7458C155.228 41.1109 155.576 40.2133 155.709 39.0527C155.787 38.5943 155.85 38.1342 155.896 37.6725C155.944 37.195 155.992 36.7174 156.041 36.2398C156.089 35.7622 156.118 35.3069 156.13 34.8739C156.228 33.742 156.064 32.8089 155.64 32.0747C155.233 31.3261 154.512 30.8998 153.477 30.7956C152.458 30.693 151.667 30.9671 151.103 31.6178C150.556 32.2543 150.21 33.136 150.064 34.2631C150.021 34.6929 149.968 35.1458 149.904 35.6218C149.855 36.0994 149.807 36.577 149.759 37.0546C149.729 37.5179 149.69 37.9803 149.644 38.442C149.559 39.6073 149.728 40.5571 150.153 41.2913C150.579 42.0096 151.294 42.4193 152.296 42.5203ZM167.714 46.8467C166.584 46.7329 165.637 46.4688 164.875 46.0543C164.113 45.6398 163.507 45.1124 163.056 44.4721C162.606 43.8318 162.292 43.1168 162.115 42.327C161.938 41.5213 161.871 40.6782 161.911 39.7978C161.938 39.3664 161.97 38.8952 162.005 38.3842C162.058 37.8588 162.111 37.3335 162.164 36.8081C162.233 36.2844 162.297 35.8004 162.358 35.3563C162.478 34.4839 162.712 33.6793 163.06 32.9424C163.409 32.1896 163.867 31.5523 164.434 31.0305C165.017 30.5103 165.723 30.1231 166.553 29.869C167.383 29.6148 168.347 29.543 169.445 29.6536C170.56 29.7659 171.498 30.0292 172.26 30.4437C173.023 30.8581 173.63 31.3775 174.081 32.0019C174.549 32.6279 174.871 33.3438 175.047 34.1495C175.241 34.9409 175.309 35.776 175.253 36.6547C175.24 37.1037 175.207 37.5908 175.154 38.1162C175.101 38.6415 175.048 39.1669 174.995 39.6922C174.944 40.2016 174.881 40.6697 174.806 41.0963C174.686 41.9686 174.459 42.782 174.126 43.5364C173.794 44.2749 173.344 44.913 172.775 45.4508C172.207 45.9885 171.499 46.3836 170.654 46.6362C169.824 46.8903 168.844 46.9605 167.714 46.8467ZM167.991 44.1006C169.025 44.2048 169.815 43.9466 170.36 43.3261C170.922 42.6912 171.27 41.7936 171.403 40.633C171.481 40.1746 171.544 39.7145 171.59 39.2529C171.638 38.7753 171.687 38.2977 171.735 37.8201C171.783 37.3425 171.812 36.8872 171.824 36.4542C171.922 35.3223 171.758 34.3892 171.334 33.655C170.927 32.9064 170.206 32.4801 169.171 32.3759C168.152 32.2733 167.361 32.5474 166.797 33.1981C166.25 33.8346 165.904 34.7163 165.759 35.8434C165.715 36.2733 165.662 36.7262 165.598 37.2021C165.55 37.6797 165.501 38.1573 165.453 38.6349C165.423 39.0982 165.384 39.5606 165.338 40.0223C165.253 41.1876 165.422 42.1374 165.847 42.8716C166.273 43.5899 166.988 43.9996 167.991 44.1006Z" fill="#00B8C2"/>
</svg>
