<svg width="25" height="24" viewBox="0 0 25 24" fill="none" xmlns="http://www.w3.org/2000/svg">
<g clip-path="url(#clip0_63_1131)">
<path d="M22.1738 12C22.1738 14.6522 21.1203 17.1957 19.2449 19.0711C17.3695 20.9464 14.826 22 12.1738 22C9.52166 22 6.97812 20.9464 5.10276 19.0711C3.2274 17.1957 2.17383 14.6522 2.17383 12C2.17383 9.34784 3.2274 6.8043 5.10276 4.92893C6.97812 3.05357 9.52166 2 12.1738 2C14.826 2 17.3695 3.05357 19.2449 4.92893C21.1203 6.8043 22.1738 9.34784 22.1738 12ZM10.6613 8.36625C10.5679 8.29971 10.4579 8.26018 10.3435 8.25198C10.229 8.24379 10.1146 8.26724 10.0126 8.31978C9.9106 8.37233 9.82505 8.45192 9.7653 8.54986C9.70554 8.64779 9.6739 8.76028 9.67383 8.875L9.67383 15.125C9.6739 15.2397 9.70554 15.3522 9.7653 15.4501C9.82505 15.5481 9.9106 15.6277 10.0126 15.6802C10.1146 15.7328 10.229 15.7562 10.3435 15.748C10.4579 15.7398 10.5679 15.7003 10.6613 15.6337L15.0363 12.5087C15.1173 12.4509 15.1834 12.3746 15.229 12.2861C15.2745 12.1976 15.2983 12.0995 15.2983 12C15.2983 11.9005 15.2745 11.8024 15.229 11.7139C15.1834 11.6254 15.1173 11.5491 15.0363 11.4913L10.6613 8.36625Z" fill="white"/>
</g>
<defs>
<clipPath id="clip0_63_1131">
<rect width="20" height="20" fill="white" transform="translate(2.17383 2)"/>
</clipPath>
</defs>
</svg>
