<svg width="1260" height="827" viewBox="0 0 1260 827" fill="none" xmlns="http://www.w3.org/2000/svg">
<rect x="0.32959" y="0.317871" width="1259.45" height="826.231" rx="60" fill="#00B8C2"/>
<mask id="mask0_444_5477" style="mask-type:alpha" maskUnits="userSpaceOnUse" x="803" y="0" width="457" height="827">
<path d="M803.911 0.317871H1213.68C1239.14 0.317871 1259.77 20.955 1259.77 46.4122V780.454C1259.77 805.912 1239.14 826.549 1213.68 826.549H803.911V0.317871Z" fill="#02B7C2"/>
</mask>
<g mask="url(#mask0_444_5477)">
<path d="M1341.17 628.214C1341.17 585.267 1306.68 550.452 1264.13 550.452C1221.59 550.452 1187.1 585.267 1187.1 628.214C1187.1 671.162 1221.59 705.977 1264.13 705.977C1306.68 705.977 1341.17 671.162 1341.17 628.214Z" fill="#81DBE1"/>
<path d="M1341.17 783.75C1341.17 740.803 1306.68 705.987 1264.13 705.987C1221.59 705.987 1187.1 740.803 1187.1 783.75C1187.1 826.697 1221.59 861.513 1264.13 861.513C1306.68 861.513 1341.17 826.697 1341.17 783.75Z" fill="#81DBE1"/>
<path d="M1341.17 473.423C1341.17 430.877 1306.68 396.386 1264.13 396.386C1221.59 396.386 1187.1 430.877 1187.1 473.423C1187.1 515.968 1221.59 550.459 1264.13 550.459C1306.68 550.459 1341.17 515.968 1341.17 473.423Z" fill="#81DBE1"/>
<path d="M1187.1 628.214C1187.1 585.267 1152.28 550.452 1109.33 550.452C1066.39 550.452 1031.57 585.267 1031.57 628.214C1031.57 671.162 1066.39 705.977 1109.33 705.977C1152.28 705.977 1187.1 671.162 1187.1 628.214Z" fill="#81DBE1"/>
<path d="M1187.1 783.75C1187.1 740.803 1152.28 705.987 1109.33 705.987C1066.39 705.987 1031.57 740.803 1031.57 783.75C1031.57 826.697 1066.39 861.513 1109.33 861.513C1152.28 861.513 1187.1 826.697 1187.1 783.75Z" fill="#81DBE1"/>
<path d="M1031.28 628.214C1031.28 585.267 996.463 550.452 953.516 550.452C910.568 550.452 875.753 585.267 875.753 628.214C875.753 671.162 910.568 705.977 953.516 705.977C996.463 705.977 1031.28 671.162 1031.28 628.214Z" fill="#81DBE1"/>
<path d="M1031.28 783.75C1031.28 740.803 996.463 705.987 953.516 705.987C910.568 705.987 875.753 740.803 875.753 783.75C875.753 826.697 910.568 861.513 953.516 861.513C996.463 861.513 1031.28 826.697 1031.28 783.75Z" fill="#81DBE1"/>
<path d="M1187.1 473.423C1187.1 430.877 1152.28 396.386 1109.33 396.386C1066.39 396.386 1031.57 430.877 1031.57 473.423C1031.57 515.968 1066.39 550.459 1109.33 550.459C1152.28 550.459 1187.1 515.968 1187.1 473.423Z" fill="#81DBE1"/>
<path d="M1187.1 318.614C1187.1 275.666 1152.28 240.851 1109.33 240.851C1066.39 240.851 1031.57 275.666 1031.57 318.614C1031.57 361.561 1066.39 396.376 1109.33 396.376C1152.28 396.376 1187.1 361.561 1187.1 318.614Z" fill="#81DBE1"/>
<path d="M1342.91 318.614C1342.91 275.666 1308.1 240.851 1265.15 240.851C1222.2 240.851 1187.39 275.666 1187.39 318.614C1187.39 361.561 1222.2 396.376 1265.15 396.376C1308.1 396.376 1342.91 361.561 1342.91 318.614Z" fill="#81DBE1"/>
<path d="M1031.57 473.423C1031.57 430.877 996.755 396.386 953.808 396.386C910.86 396.386 876.045 430.877 876.045 473.423C876.045 515.968 910.86 550.459 953.808 550.459C996.755 550.459 1031.57 515.968 1031.57 473.423Z" fill="#81DBE1"/>
<path d="M1031.57 318.614C1031.57 275.666 996.755 240.851 953.808 240.851C910.86 240.851 876.045 275.666 876.045 318.614C876.045 361.561 910.86 396.376 953.808 396.376C996.755 396.376 1031.57 361.561 1031.57 318.614Z" fill="#81DBE1"/>
<path d="M876.044 628.214C876.044 585.267 841.554 550.452 799.008 550.452C756.462 550.452 721.972 585.267 721.972 628.214C721.972 671.162 756.462 705.977 799.008 705.977C841.554 705.977 876.044 671.162 876.044 628.214Z" fill="#81DBE1"/>
<path d="M876.044 783.75C876.044 740.803 841.554 705.987 799.008 705.987C756.462 705.987 721.972 740.803 721.972 783.75C721.972 826.697 756.462 861.513 799.008 861.513C841.554 861.513 876.044 826.697 876.044 783.75Z" fill="#81DBE1"/>
<path d="M876.044 473.419C876.044 430.472 841.554 395.656 799.008 395.656C756.462 395.656 721.972 430.472 721.972 473.419C721.972 516.366 756.462 551.182 799.008 551.182C841.554 551.182 876.044 516.366 876.044 473.419Z" fill="#81DBE1"/>
<path d="M876.044 318.614C876.044 275.666 841.554 240.851 799.008 240.851C756.462 240.851 721.972 275.666 721.972 318.614C721.972 361.561 756.462 396.376 799.008 396.376C841.554 396.376 876.044 361.561 876.044 318.614Z" fill="#81DBE1"/>
<path d="M1341.17 162.552C1341.17 119.605 1306.68 84.7889 1264.13 84.7889C1221.59 84.7889 1187.1 119.605 1187.1 162.552C1187.1 205.499 1221.59 240.315 1264.13 240.315C1306.68 240.315 1341.17 205.499 1341.17 162.552Z" fill="#81DBE1"/>
<path d="M1341.17 7.75996C1341.17 -34.7859 1306.68 -69.2762 1264.13 -69.2762C1221.59 -69.2762 1187.1 -34.7859 1187.1 7.75996C1187.1 50.3058 1221.59 84.7961 1264.13 84.7961C1306.68 84.7961 1341.17 50.3058 1341.17 7.75996Z" fill="#81DBE1"/>
<path d="M1187.1 162.552C1187.1 119.605 1152.28 84.7889 1109.33 84.7889C1066.39 84.7889 1031.57 119.605 1031.57 162.552C1031.57 205.499 1066.39 240.315 1109.33 240.315C1152.28 240.315 1187.1 205.499 1187.1 162.552Z" fill="#81DBE1"/>
<path d="M1031.28 162.552C1031.28 119.605 996.463 84.7889 953.515 84.7889C910.568 84.7889 875.752 119.605 875.752 162.552C875.752 205.499 910.568 240.315 953.515 240.315C996.463 240.315 1031.28 205.499 1031.28 162.552Z" fill="#81DBE1"/>
<path d="M1187.1 7.75996C1187.1 -34.7859 1152.28 -69.2762 1109.33 -69.2762C1066.39 -69.2762 1031.57 -34.7859 1031.57 7.75996C1031.57 50.3058 1066.39 84.7961 1109.33 84.7961C1152.28 84.7961 1187.1 50.3058 1187.1 7.75996Z" fill="#81DBE1"/>
<path d="M1031.57 7.75996C1031.57 -34.7859 996.754 -69.2762 953.806 -69.2762C910.859 -69.2762 876.043 -34.7859 876.043 7.75996C876.043 50.3058 910.859 84.7961 953.806 84.7961C996.754 84.7961 1031.57 50.3058 1031.57 7.75996Z" fill="#81DBE1"/>
<path d="M876.044 162.552C876.044 119.605 841.554 84.7889 799.008 84.7889C756.462 84.7889 721.972 119.605 721.972 162.552C721.972 205.499 756.462 240.315 799.008 240.315C841.554 240.315 876.044 205.499 876.044 162.552Z" fill="#81DBE1"/>
<path d="M876.044 7.7561C876.044 -35.1912 841.554 -70.0068 799.008 -70.0068C756.462 -70.0068 721.972 -35.1912 721.972 7.7561C721.972 50.7034 756.462 85.519 799.008 85.519C841.554 85.519 876.044 50.7034 876.044 7.7561Z" fill="#81DBE1"/>
</g>
</svg>
