<svg width="1260" height="907" viewBox="0 0 1260 907" fill="none" xmlns="http://www.w3.org/2000/svg">
<g clip-path="url(#clip0_444_5679)">
<rect x="0.268555" y="430.3" width="1259.45" height="475.544" rx="60" fill="#CF4708"/>
<mask id="mask0_444_5679" style="mask-type:alpha" maskUnits="userSpaceOnUse" x="803" y="429" width="457" height="477">
<path d="M803.912 429.916H1205.87C1235.64 429.916 1259.77 454.047 1259.77 483.816V851.944C1259.77 881.712 1235.64 905.844 1205.87 905.844H803.912V429.916Z" fill="#02B7C2"/>
</mask>
<g mask="url(#mask0_444_5679)">
<path d="M1341.17 903.015C1341.17 860.47 1306.68 825.98 1264.13 825.98C1221.58 825.98 1187.09 860.47 1187.09 903.015C1187.09 945.561 1221.58 980.051 1264.13 980.051C1306.68 980.051 1341.17 945.561 1341.17 903.015Z" fill="#DB7546"/>
<path d="M1187.09 903.015C1187.09 860.47 1152.28 825.98 1109.33 825.98C1066.39 825.98 1031.57 860.47 1031.57 903.015C1031.57 945.561 1066.39 980.051 1109.33 980.051C1152.28 980.051 1187.09 945.561 1187.09 903.015Z" fill="#DB7546"/>
<path d="M1187.09 748.208C1187.09 705.261 1152.28 670.446 1109.33 670.446C1066.39 670.446 1031.57 705.261 1031.57 748.208C1031.57 791.155 1066.39 825.97 1109.33 825.97C1152.28 825.97 1187.09 791.155 1187.09 748.208Z" fill="#DB7546"/>
<path d="M1342.91 748.208C1342.91 705.261 1308.1 670.446 1265.15 670.446C1222.2 670.446 1187.39 705.261 1187.39 748.208C1187.39 791.155 1222.2 825.97 1265.15 825.97C1308.1 825.97 1342.91 791.155 1342.91 748.208Z" fill="#DB7546"/>
<path d="M1031.57 903.015C1031.57 860.47 996.755 825.98 953.808 825.98C910.861 825.98 876.046 860.47 876.046 903.015C876.046 945.561 910.861 980.051 953.808 980.051C996.755 980.051 1031.57 945.561 1031.57 903.015Z" fill="#DB7546"/>
<path d="M1031.57 748.208C1031.57 705.261 996.755 670.446 953.808 670.446C910.861 670.446 876.046 705.261 876.046 748.208C876.046 791.155 910.861 825.97 953.808 825.97C996.755 825.97 1031.57 791.155 1031.57 748.208Z" fill="#DB7546"/>
<path d="M876.046 903.012C876.046 860.065 841.556 825.249 799.01 825.249C756.465 825.249 721.975 860.065 721.975 903.012C721.975 945.958 756.465 980.774 799.01 980.774C841.556 980.774 876.046 945.958 876.046 903.012Z" fill="#DB7546"/>
<path d="M876.046 748.208C876.046 705.261 841.556 670.446 799.01 670.446C756.465 670.446 721.975 705.261 721.975 748.208C721.975 791.155 756.465 825.97 799.01 825.97C841.556 825.97 876.046 791.155 876.046 748.208Z" fill="#DB7546"/>
<path d="M1341.17 592.148C1341.17 549.201 1306.68 514.385 1264.13 514.385C1221.58 514.385 1187.09 549.201 1187.09 592.148C1187.09 635.094 1221.58 669.91 1264.13 669.91C1306.68 669.91 1341.17 635.094 1341.17 592.148Z" fill="#DB7546"/>
<path d="M1341.17 437.357C1341.17 394.812 1306.68 360.322 1264.13 360.322C1221.58 360.322 1187.09 394.812 1187.09 437.357C1187.09 479.903 1221.58 514.393 1264.13 514.393C1306.68 514.393 1341.17 479.903 1341.17 437.357Z" fill="#DB7546"/>
<path d="M1187.09 592.148C1187.09 549.201 1152.28 514.386 1109.33 514.386C1066.39 514.386 1031.57 549.201 1031.57 592.148C1031.57 635.095 1066.39 669.91 1109.33 669.91C1152.28 669.91 1187.09 635.095 1187.09 592.148Z" fill="#DB7546"/>
<path d="M1031.28 592.148C1031.28 549.201 996.463 514.386 953.516 514.386C910.569 514.386 875.754 549.201 875.754 592.148C875.754 635.095 910.569 669.91 953.516 669.91C996.463 669.91 1031.28 635.095 1031.28 592.148Z" fill="#DB7546"/>
<path d="M1187.09 437.357C1187.09 394.812 1152.28 360.322 1109.33 360.322C1066.39 360.322 1031.57 394.812 1031.57 437.357C1031.57 479.903 1066.39 514.393 1109.33 514.393C1152.28 514.393 1187.09 479.903 1187.09 437.357Z" fill="#DB7546"/>
<path d="M1031.57 437.357C1031.57 394.812 996.754 360.322 953.807 360.322C910.86 360.322 876.045 394.812 876.045 437.357C876.045 479.903 910.86 514.393 953.807 514.393C996.754 514.393 1031.57 479.903 1031.57 437.357Z" fill="#DB7546"/>
<path d="M876.046 592.148C876.046 549.201 841.556 514.386 799.01 514.386C756.465 514.386 721.975 549.201 721.975 592.148C721.975 635.095 756.465 669.91 799.01 669.91C841.556 669.91 876.046 635.095 876.046 592.148Z" fill="#DB7546"/>
<path d="M876.046 437.353C876.046 394.406 841.556 359.591 799.01 359.591C756.465 359.591 721.975 394.406 721.975 437.353C721.975 480.3 756.465 515.115 799.01 515.115C841.556 515.115 876.046 480.3 876.046 437.353Z" fill="#DB7546"/>
</g>
</g>
<defs>
<clipPath id="clip0_444_5679">
<rect width="1259" height="906" fill="white" transform="translate(0.514648 0.30249)"/>
</clipPath>
</defs>
</svg>
