<svg width="1260" height="478" viewBox="0 0 1260 478" fill="none" xmlns="http://www.w3.org/2000/svg">
<rect x="0.268555" y="1.29956" width="1259.45" height="475.544" rx="60" fill="#CF4708"/>
<mask id="mask0_444_5680" style="mask-type:alpha" maskUnits="userSpaceOnUse" x="803" y="0" width="457" height="477">
<path d="M803.912 0.915527H1205.87C1235.64 0.915527 1259.77 25.0474 1259.77 54.8155V422.944C1259.77 452.712 1235.64 476.844 1205.87 476.844H803.912V0.915527Z" fill="#02B7C2"/>
</mask>
<g mask="url(#mask0_444_5680)">
<path d="M1341.17 474.015C1341.17 431.47 1306.68 396.98 1264.13 396.98C1221.58 396.98 1187.09 431.47 1187.09 474.015C1187.09 516.561 1221.58 551.051 1264.13 551.051C1306.68 551.051 1341.17 516.561 1341.17 474.015Z" fill="#DB7546"/>
<path d="M1187.09 474.015C1187.09 431.47 1152.28 396.98 1109.33 396.98C1066.39 396.98 1031.57 431.47 1031.57 474.015C1031.57 516.561 1066.39 551.051 1109.33 551.051C1152.28 551.051 1187.09 516.561 1187.09 474.015Z" fill="#DB7546"/>
<path d="M1187.09 319.208C1187.09 276.261 1152.28 241.446 1109.33 241.446C1066.39 241.446 1031.57 276.261 1031.57 319.208C1031.57 362.155 1066.39 396.97 1109.33 396.97C1152.28 396.97 1187.09 362.155 1187.09 319.208Z" fill="#DB7546"/>
<path d="M1342.91 319.208C1342.91 276.261 1308.1 241.446 1265.15 241.446C1222.2 241.446 1187.39 276.261 1187.39 319.208C1187.39 362.155 1222.2 396.97 1265.15 396.97C1308.1 396.97 1342.91 362.155 1342.91 319.208Z" fill="#DB7546"/>
<path d="M1031.57 474.015C1031.57 431.47 996.755 396.98 953.808 396.98C910.861 396.98 876.046 431.47 876.046 474.015C876.046 516.561 910.861 551.051 953.808 551.051C996.755 551.051 1031.57 516.561 1031.57 474.015Z" fill="#DB7546"/>
<path d="M1031.57 319.208C1031.57 276.261 996.755 241.446 953.808 241.446C910.861 241.446 876.046 276.261 876.046 319.208C876.046 362.155 910.861 396.97 953.808 396.97C996.755 396.97 1031.57 362.155 1031.57 319.208Z" fill="#DB7546"/>
<path d="M876.046 474.012C876.046 431.065 841.556 396.249 799.01 396.249C756.465 396.249 721.975 431.065 721.975 474.012C721.975 516.958 756.465 551.774 799.01 551.774C841.556 551.774 876.046 516.958 876.046 474.012Z" fill="#DB7546"/>
<path d="M876.046 319.208C876.046 276.261 841.556 241.446 799.01 241.446C756.465 241.446 721.975 276.261 721.975 319.208C721.975 362.155 756.465 396.97 799.01 396.97C841.556 396.97 876.046 362.155 876.046 319.208Z" fill="#DB7546"/>
<path d="M1341.17 163.148C1341.17 120.201 1306.68 85.3854 1264.13 85.3854C1221.58 85.3854 1187.09 120.201 1187.09 163.148C1187.09 206.094 1221.58 240.91 1264.13 240.91C1306.68 240.91 1341.17 206.094 1341.17 163.148Z" fill="#DB7546"/>
<path d="M1341.17 8.35743C1341.17 -34.188 1306.68 -68.678 1264.13 -68.678C1221.58 -68.678 1187.09 -34.188 1187.09 8.35743C1187.09 50.9029 1221.58 85.3928 1264.13 85.3928C1306.68 85.3928 1341.17 50.9029 1341.17 8.35743Z" fill="#DB7546"/>
<path d="M1187.09 163.148C1187.09 120.201 1152.28 85.3856 1109.33 85.3856C1066.39 85.3856 1031.57 120.201 1031.57 163.148C1031.57 206.095 1066.39 240.91 1109.33 240.91C1152.28 240.91 1187.09 206.095 1187.09 163.148Z" fill="#DB7546"/>
<path d="M1031.28 163.148C1031.28 120.201 996.463 85.3856 953.516 85.3856C910.569 85.3856 875.754 120.201 875.754 163.148C875.754 206.095 910.569 240.91 953.516 240.91C996.463 240.91 1031.28 206.095 1031.28 163.148Z" fill="#DB7546"/>
<path d="M1187.09 8.35719C1187.09 -34.1883 1152.28 -68.6782 1109.33 -68.6782C1066.39 -68.6782 1031.57 -34.1883 1031.57 8.35719C1031.57 50.9027 1066.39 85.3926 1109.33 85.3926C1152.28 85.3926 1187.09 50.9027 1187.09 8.35719Z" fill="#DB7546"/>
<path d="M1031.57 8.35719C1031.57 -34.1883 996.754 -68.6782 953.807 -68.6782C910.86 -68.6782 876.045 -34.1883 876.045 8.35719C876.045 50.9027 910.86 85.3926 953.807 85.3926C996.754 85.3926 1031.57 50.9027 1031.57 8.35719Z" fill="#DB7546"/>
<path d="M876.046 163.148C876.046 120.201 841.556 85.3856 799.01 85.3856C756.465 85.3856 721.975 120.201 721.975 163.148C721.975 206.095 756.465 240.91 799.01 240.91C841.556 240.91 876.046 206.095 876.046 163.148Z" fill="#DB7546"/>
<path d="M876.046 8.35333C876.046 -34.5935 841.556 -69.4088 799.01 -69.4088C756.465 -69.4088 721.975 -34.5935 721.975 8.35333C721.975 51.3002 756.465 86.1155 799.01 86.1155C841.556 86.1155 876.046 51.3002 876.046 8.35333Z" fill="#DB7546"/>
</g>
</svg>
