<svg width="97" height="24" viewBox="0 0 97 24" fill="none" xmlns="http://www.w3.org/2000/svg">
<path d="M22.9053 11.9995C22.9076 12.3071 22.8141 12.6079 22.6377 12.8599C22.4613 13.1119 22.2108 13.3027 21.9209 13.4058L15.9734 15.5686L13.8115 21.5151C13.705 21.8022 13.5131 22.0498 13.2617 22.2246C13.0103 22.3994 12.7115 22.4932 12.4053 22.4932C12.0991 22.4932 11.8002 22.3994 11.5488 22.2246C11.2974 22.0498 11.1056 21.8022 10.999 21.5151L8.83714 15.5676L2.88964 13.4058C2.60258 13.2992 2.355 13.1073 2.18017 12.856C2.00533 12.6046 1.91162 12.3057 1.91162 11.9995C1.91162 11.6933 2.00533 11.3944 2.18017 11.1431C2.355 10.8917 2.60258 10.6998 2.88964 10.5933L8.83714 8.43138L10.999 2.48388C11.1056 2.19682 11.2974 1.94924 11.5488 1.7744C11.8002 1.59957 12.0991 1.50586 12.4053 1.50586C12.7115 1.50586 13.0103 1.59957 13.2617 1.7744C13.5131 1.94924 13.705 2.19682 13.8115 2.48388L15.9743 8.43138L21.9209 10.5933C22.2108 10.6963 22.4613 10.8871 22.6377 11.1391C22.8141 11.3912 22.9076 11.6919 22.9053 11.9995Z" fill="#FDB515"/>
<path d="M58.9053 11.9995C58.9076 12.3071 58.8141 12.6079 58.6377 12.8599C58.4613 13.1119 58.2108 13.3027 57.9209 13.4058L51.9734 15.5686L49.8115 21.5151C49.705 21.8022 49.5131 22.0498 49.2617 22.2246C49.0103 22.3994 48.7115 22.4932 48.4053 22.4932C48.0991 22.4932 47.8002 22.3994 47.5488 22.2246C47.2974 22.0498 47.1056 21.8022 46.999 21.5151L44.8371 15.5676L38.8896 13.4058C38.6026 13.2992 38.355 13.1073 38.1802 12.856C38.0053 12.6046 37.9116 12.3057 37.9116 11.9995C37.9116 11.6933 38.0053 11.3944 38.1802 11.1431C38.355 10.8917 38.6026 10.6998 38.8896 10.5933L44.8371 8.43138L46.999 2.48388C47.1056 2.19682 47.2974 1.94924 47.5488 1.7744C47.8002 1.59957 48.0991 1.50586 48.4053 1.50586C48.7115 1.50586 49.0103 1.59957 49.2617 1.7744C49.5131 1.94924 49.705 2.19682 49.8115 2.48388L51.9743 8.43138L57.9209 10.5933C58.2108 10.6963 58.4613 10.8871 58.6377 11.1391C58.8141 11.3912 58.9076 11.6919 58.9053 11.9995Z" fill="#FDB515"/>
<path d="M94.9053 11.9995C94.9076 12.3071 94.8141 12.6079 94.6377 12.8599C94.4613 13.1119 94.2108 13.3027 93.9209 13.4058L87.9734 15.5686L85.8115 21.5151C85.705 21.8022 85.5131 22.0498 85.2617 22.2246C85.0103 22.3994 84.7115 22.4932 84.4053 22.4932C84.0991 22.4932 83.8002 22.3994 83.5488 22.2246C83.2974 22.0498 83.1056 21.8022 82.999 21.5151L80.8371 15.5676L74.8896 13.4058C74.6026 13.2992 74.355 13.1073 74.1802 12.856C74.0053 12.6046 73.9116 12.3057 73.9116 11.9995C73.9116 11.6933 74.0053 11.3944 74.1802 11.1431C74.355 10.8917 74.6026 10.6998 74.8896 10.5933L80.8371 8.43138L82.999 2.48388C83.1056 2.19682 83.2974 1.94924 83.5488 1.7744C83.8002 1.59957 84.0991 1.50586 84.4053 1.50586C84.7115 1.50586 85.0103 1.59957 85.2617 1.7744C85.5131 1.94924 85.705 2.19682 85.8115 2.48388L87.9743 8.43138L93.9209 10.5933C94.2108 10.6963 94.4613 10.8871 94.6377 11.1391C94.8141 11.3912 94.9076 11.6919 94.9053 11.9995Z" fill="#FDB515"/>
</svg>
